<svg width="80" height="46" viewBox="0 0 80 46" fill="none" xmlns="http://www.w3.org/2000/svg">
<g clip-path="url(#clip0_83_259)">
<path d="M61.8826 13.3842C61.8196 13.2926 61.7347 13.2176 61.6353 13.1658C61.536 13.114 61.4252 13.0869 61.3128 13.0869H59.1825V10.3476C59.1825 10.1681 59.11 9.99593 58.9809 9.86902C58.8518 9.7421 58.6768 9.6708 58.4943 9.6708H41.7587L41.0186 8.95475C40.8899 8.83021 40.7166 8.76043 40.536 8.76046H38.8155L36.7213 6.73627C36.5926 6.61187 36.4194 6.54216 36.239 6.54215H33.5776V5.93004C33.5776 4.92251 32.8016 4.09017 31.8066 3.97971V2.17145C31.8066 1.79766 31.4985 1.49469 31.1184 1.49469C30.7383 1.49469 30.4302 1.79766 30.4302 2.17145V3.97971C29.4338 4.09008 28.6568 4.92242 28.6568 5.93004V6.54215H23.8469C23.7011 6.5421 23.5591 6.58756 23.4413 6.67199C23.3236 6.75641 23.2361 6.87543 23.1915 7.01189C23.1469 7.14836 23.1476 7.29521 23.1933 7.43129C23.2391 7.56737 23.3276 7.68565 23.4461 7.76907L26.0907 9.6315L22.2575 16.2196L21.6898 16.3045C21.5563 16.3245 21.4317 16.3826 21.3316 16.4716C21.2315 16.5607 21.1602 16.6767 21.1267 16.8053L20.5593 18.9782L18.6831 18.9894C18.5637 18.9901 18.4466 19.0213 18.3432 19.08C18.2398 19.1386 18.1537 19.2228 18.0934 19.324C18.0331 19.4253 18.0006 19.5403 17.9991 19.6576C17.9976 19.775 18.0272 19.8907 18.0849 19.9935L20.5014 24.2935C20.5609 24.3994 20.6481 24.4876 20.7541 24.5491C20.86 24.6105 20.9808 24.6429 21.1037 24.6429H51.0742C51.1788 24.6429 51.282 24.6195 51.376 24.5743C58.2547 21.2734 60.5822 17.384 61.9517 14.0146C61.9935 13.912 62.009 13.8009 61.997 13.6909C61.9849 13.581 61.9457 13.4757 61.8826 13.3842ZM57.8061 13.0869H53.9451V11.0243H57.8062L57.8061 13.0869ZM48.7564 13.0869V11.0243H52.5687V13.0869H48.7564ZM47.38 11.0243V13.0869H45.2817C45.2643 13.0651 45.2456 13.0444 45.2256 13.0248L43.1577 11.0243H47.38ZM43.3271 13.0869H43.2497C43.215 13.0869 43.1804 13.0894 43.1462 13.0946L37.0098 14.0126V10.114H40.2542L43.3271 13.0869ZM35.6335 10.114V14.2185L31.5311 14.8323V10.114H35.6335ZM30.0331 5.93012C30.0331 5.59394 30.3123 5.32047 30.6554 5.32047H31.5811C31.923 5.32047 32.2011 5.59394 32.2011 5.93012V6.54223H30.033L30.0331 5.93012ZM35.9573 7.89566L36.852 8.76046H27.2175L25.9896 7.89566H35.9573ZM27.3957 10.114H30.1548V15.0382L23.9943 15.9599L27.3957 10.114ZM50.9144 23.2896H21.5097L19.85 20.3362L21.0982 20.3287H55.7016C54.4461 21.3403 52.8851 22.3327 50.9144 23.2896ZM57.198 18.9752H21.9812L22.3466 17.5755L43.3017 14.4404H60.2747C59.5883 15.9428 58.6719 17.4718 57.198 18.9752ZM30.7492 21.7576C30.7492 21.9371 30.6767 22.1092 30.5476 22.2362C30.4186 22.3631 30.2435 22.4344 30.061 22.4344H22.9211C22.541 22.4344 22.2329 22.1314 22.2329 21.7576C22.2329 21.3838 22.541 21.0809 22.9211 21.0809H30.0611C30.1515 21.0809 30.2409 21.0984 30.3244 21.1324C30.4079 21.1664 30.4838 21.2162 30.5477 21.2791C30.6116 21.3419 30.6623 21.4165 30.6968 21.4986C30.7314 21.5807 30.7492 21.6688 30.7492 21.7576ZM56.4711 16.3508C56.4711 16.5303 56.3986 16.7024 56.2696 16.8294C56.1405 16.9563 55.9655 17.0276 55.783 17.0276H47.3763C46.9962 17.0276 46.6881 16.7246 46.6881 16.3508C46.6881 15.977 46.9962 15.6741 47.3763 15.6741H55.783C55.8733 15.6741 55.9628 15.6916 56.0463 15.7256C56.1298 15.7596 56.2057 15.8094 56.2696 15.8723C56.3335 15.9351 56.3842 16.0097 56.4188 16.0918C56.4533 16.174 56.4711 16.262 56.4711 16.3508Z" fill="#8891B2"/>
</g>
<path d="M7.2248 39.6937C7.74746 39.7871 8.1908 40.0624 8.5548 40.5197C8.9188 40.9771 9.1008 41.4951 9.1008 42.0737C9.1008 42.5684 8.97013 43.0164 8.7088 43.4177C8.4568 43.8097 8.08813 44.1224 7.6028 44.3557C7.11746 44.5797 6.5528 44.6917 5.9088 44.6917H2.0168V34.9617H5.7268C6.38946 34.9617 6.9588 35.0737 7.4348 35.2977C7.9108 35.5217 8.27013 35.8251 8.5128 36.2077C8.75546 36.5811 8.8768 37.0011 8.8768 37.4677C8.8768 38.0277 8.72746 38.4944 8.4288 38.8677C8.13013 39.2411 7.7288 39.5164 7.2248 39.6937ZM3.6128 39.0497H5.5868C6.10946 39.0497 6.51546 38.9331 6.8048 38.6997C7.10346 38.4571 7.2528 38.1117 7.2528 37.6637C7.2528 37.2251 7.10346 36.8844 6.8048 36.6417C6.51546 36.3897 6.10946 36.2637 5.5868 36.2637H3.6128V39.0497ZM5.7688 43.3897C6.31013 43.3897 6.7348 43.2591 7.0428 42.9977C7.3508 42.7364 7.5048 42.3724 7.5048 41.9057C7.5048 41.4297 7.34146 41.0517 7.0148 40.7717C6.68813 40.4917 6.25413 40.3517 5.7128 40.3517H3.6128V43.3897H5.7688ZM14.1812 44.8177C13.4532 44.8177 12.7952 44.6544 12.2072 44.3277C11.6192 43.9917 11.1572 43.5251 10.8212 42.9277C10.4852 42.3211 10.3172 41.6211 10.3172 40.8277C10.3172 40.0437 10.4898 39.3484 10.8352 38.7417C11.1805 38.1351 11.6518 37.6684 12.2492 37.3417C12.8465 37.0151 13.5138 36.8517 14.2512 36.8517C14.9885 36.8517 15.6558 37.0151 16.2532 37.3417C16.8505 37.6684 17.3218 38.1351 17.6672 38.7417C18.0125 39.3484 18.1852 40.0437 18.1852 40.8277C18.1852 41.6117 18.0078 42.3071 17.6532 42.9137C17.2985 43.5204 16.8132 43.9917 16.1972 44.3277C15.5905 44.6544 14.9185 44.8177 14.1812 44.8177ZM14.1812 43.4317C14.5918 43.4317 14.9745 43.3337 15.3292 43.1377C15.6932 42.9417 15.9872 42.6477 16.2112 42.2557C16.4352 41.8637 16.5472 41.3877 16.5472 40.8277C16.5472 40.2677 16.4398 39.7964 16.2252 39.4137C16.0105 39.0217 15.7258 38.7277 15.3712 38.5317C15.0165 38.3357 14.6338 38.2377 14.2232 38.2377C13.8125 38.2377 13.4298 38.3357 13.0752 38.5317C12.7298 38.7277 12.4545 39.0217 12.2492 39.4137C12.0438 39.7964 11.9412 40.2677 11.9412 40.8277C11.9412 41.6584 12.1512 42.3024 12.5712 42.7597C13.0005 43.2077 13.5372 43.4317 14.1812 43.4317ZM19.2309 40.7997C19.2309 40.0251 19.3896 39.3391 19.7069 38.7417C20.0336 38.1444 20.4722 37.6824 21.0229 37.3557C21.5829 37.0197 22.1989 36.8517 22.8709 36.8517C23.4776 36.8517 24.0049 36.9731 24.4529 37.2157C24.9102 37.4491 25.2742 37.7431 25.5449 38.0977V36.9777H27.1549V44.6917H25.5449V43.5437C25.2742 43.9077 24.9056 44.2111 24.4389 44.4537C23.9722 44.6964 23.4402 44.8177 22.8429 44.8177C22.1802 44.8177 21.5736 44.6497 21.0229 44.3137C20.4722 43.9684 20.0336 43.4924 19.7069 42.8857C19.3896 42.2697 19.2309 41.5744 19.2309 40.7997ZM25.5449 40.8277C25.5449 40.2957 25.4329 39.8337 25.2089 39.4417C24.9942 39.0497 24.7096 38.7511 24.3549 38.5457C24.0002 38.3404 23.6176 38.2377 23.2069 38.2377C22.7962 38.2377 22.4136 38.3404 22.0589 38.5457C21.7042 38.7417 21.4149 39.0357 21.1909 39.4277C20.9762 39.8104 20.8689 40.2677 20.8689 40.7997C20.8689 41.3317 20.9762 41.7984 21.1909 42.1997C21.4149 42.6011 21.7042 42.9091 22.0589 43.1237C22.4229 43.3291 22.8056 43.4317 23.2069 43.4317C23.6176 43.4317 24.0002 43.3291 24.3549 43.1237C24.7096 42.9184 24.9942 42.6197 25.2089 42.2277C25.4329 41.8264 25.5449 41.3597 25.5449 40.8277ZM31.1132 38.2797V42.5497C31.1132 42.8391 31.1785 43.0491 31.3092 43.1797C31.4492 43.3011 31.6825 43.3617 32.0092 43.3617H32.9892V44.6917H31.7292C31.0105 44.6917 30.4598 44.5237 30.0772 44.1877C29.6945 43.8517 29.5032 43.3057 29.5032 42.5497V38.2797H28.5932V36.9777H29.5032V35.0597H31.1132V36.9777H32.9892V38.2797H31.1132ZM45.8669 34.9617V44.6917H44.2709V40.4357H39.6929V44.6917H38.0969V34.9617H39.6929V39.1337H44.2709V34.9617H45.8669ZM51.314 44.8177C50.586 44.8177 49.928 44.6544 49.34 44.3277C48.752 43.9917 48.29 43.5251 47.954 42.9277C47.618 42.3211 47.45 41.6211 47.45 40.8277C47.45 40.0437 47.6226 39.3484 47.968 38.7417C48.3133 38.1351 48.7846 37.6684 49.382 37.3417C49.9793 37.0151 50.6466 36.8517 51.384 36.8517C52.1213 36.8517 52.7886 37.0151 53.386 37.3417C53.9833 37.6684 54.4546 38.1351 54.8 38.7417C55.1453 39.3484 55.318 40.0437 55.318 40.8277C55.318 41.6117 55.1406 42.3071 54.786 42.9137C54.4313 43.5204 53.946 43.9917 53.33 44.3277C52.7233 44.6544 52.0513 44.8177 51.314 44.8177ZM51.314 43.4317C51.7246 43.4317 52.1073 43.3337 52.462 43.1377C52.826 42.9417 53.12 42.6477 53.344 42.2557C53.568 41.8637 53.68 41.3877 53.68 40.8277C53.68 40.2677 53.5726 39.7964 53.358 39.4137C53.1433 39.0217 52.8586 38.7277 52.504 38.5317C52.1493 38.3357 51.7666 38.2377 51.356 38.2377C50.9453 38.2377 50.5626 38.3357 50.208 38.5317C49.8626 38.7277 49.5873 39.0217 49.382 39.4137C49.1766 39.7964 49.074 40.2677 49.074 40.8277C49.074 41.6584 49.284 42.3024 49.704 42.7597C50.1333 43.2077 50.67 43.4317 51.314 43.4317ZM66.2337 36.8517C66.8404 36.8517 67.3817 36.9777 67.8577 37.2297C68.343 37.4817 68.721 37.8551 68.9917 38.3497C69.2717 38.8444 69.4117 39.4417 69.4117 40.1417V44.6917H67.8297V40.3797C67.8297 39.6891 67.657 39.1617 67.3117 38.7977C66.9664 38.4244 66.495 38.2377 65.8977 38.2377C65.3004 38.2377 64.8244 38.4244 64.4697 38.7977C64.1244 39.1617 63.9517 39.6891 63.9517 40.3797V44.6917H62.3697V40.3797C62.3697 39.6891 62.197 39.1617 61.8517 38.7977C61.5064 38.4244 61.035 38.2377 60.4377 38.2377C59.8404 38.2377 59.3644 38.4244 59.0097 38.7977C58.6644 39.1617 58.4917 39.6891 58.4917 40.3797V44.6917H56.8957V36.9777H58.4917V37.8597C58.753 37.5424 59.0844 37.2951 59.4857 37.1177C59.887 36.9404 60.3164 36.8517 60.7737 36.8517C61.3897 36.8517 61.9404 36.9824 62.4257 37.2437C62.911 37.5051 63.2844 37.8831 63.5457 38.3777C63.779 37.9111 64.143 37.5424 64.6377 37.2717C65.1324 36.9917 65.6644 36.8517 66.2337 36.8517ZM78.5126 40.6457C78.5126 40.9351 78.4939 41.1964 78.4566 41.4297H72.5626C72.6092 42.0457 72.8379 42.5404 73.2486 42.9137C73.6592 43.2871 74.1632 43.4737 74.7606 43.4737C75.6192 43.4737 76.2259 43.1144 76.5806 42.3957H78.3026C78.0692 43.1051 77.6446 43.6884 77.0286 44.1457C76.4219 44.5937 75.6659 44.8177 74.7606 44.8177C74.0232 44.8177 73.3606 44.6544 72.7726 44.3277C72.1939 43.9917 71.7366 43.5251 71.4006 42.9277C71.0739 42.3211 70.9106 41.6211 70.9106 40.8277C70.9106 40.0344 71.0692 39.3391 71.3866 38.7417C71.7132 38.1351 72.1659 37.6684 72.7446 37.3417C73.3326 37.0151 74.0046 36.8517 74.7606 36.8517C75.4886 36.8517 76.1372 37.0104 76.7066 37.3277C77.2759 37.6451 77.7192 38.0931 78.0366 38.6717C78.3539 39.2411 78.5126 39.8991 78.5126 40.6457ZM76.8466 40.1417C76.8372 39.5537 76.6272 39.0824 76.2166 38.7277C75.8059 38.3731 75.2972 38.1957 74.6906 38.1957C74.1399 38.1957 73.6686 38.3731 73.2766 38.7277C72.8846 39.0731 72.6512 39.5444 72.5766 40.1417H76.8466Z" fill="#8891B2"/>
<defs>
<clipPath id="clip0_83_259">
<rect width="44" height="25" fill="white" transform="translate(18 0.691742)"/>
</clipPath>
</defs>
</svg>
