<svg width="89" height="46" viewBox="0 0 89 46" fill="none" xmlns="http://www.w3.org/2000/svg">
<g clip-path="url(#clip0_83_264)">
<path d="M69.2266 12.5531C68.9824 12.1039 68.5234 11.8304 68.0156 11.8304L60.4766 11.8109V7.5726C60.4766 6.80112 59.8516 6.17612 59.0801 6.17612H54.7539V5.03354C54.7539 4.26205 54.1289 3.63705 53.3574 3.63705H43.8555C43.084 3.63705 42.459 4.26205 42.459 5.03354V6.17612H38.084C37.3125 6.17612 36.6875 6.80112 36.6875 7.5726V15.932H35.0859V14.0472C35.0859 13.2757 34.4609 12.6507 33.6895 12.6507H30.1836V10.7855C30.1836 10.014 29.5586 9.38901 28.7871 9.38901H24.4902V6.12729H24.9102C25.1348 6.12729 25.3301 5.94174 25.3301 5.70737C25.3301 5.47299 25.1445 5.28744 24.9102 5.28744H23.2305C23.0059 5.28744 22.8105 5.47299 22.8105 5.70737C22.8105 5.94174 22.9961 6.12729 23.2305 6.12729H23.6504V9.51596C23.1719 9.7308 22.8301 10.2191 22.8301 10.7855V15.932H20.9844C20.6133 15.932 20.2617 16.0785 19.998 16.3421C19.7344 16.6058 19.5879 16.9574 19.5879 17.3285V20.4437C19.5977 23.3538 21.9805 25.7269 24.9004 25.7269L60.9941 25.7367C61.4727 25.7367 61.9121 25.4925 62.1758 25.0824L69.1875 13.9496C69.4609 13.5296 69.4707 13.0023 69.2266 12.5531ZM59.1777 11.8011C58.7383 11.8011 58.3184 12.0062 58.0547 12.3578L57.2246 13.471H54.7539V11.8011H59.6367H59.1777ZM59.6367 10.971H54.7539V9.39877H59.6367V10.971ZM53.9238 10.971H49.0312V9.39877H53.9238V10.971ZM53.9238 11.8011V13.471H49.0312V11.8011H53.9238ZM49.0312 8.5687V7.0062H53.9238V8.5687H49.0312ZM48.2012 8.5687H43.2988V7.0062H48.2012V8.5687ZM48.2012 9.39877V10.971H43.2988V9.39877H48.2012ZM42.4688 10.971H37.5273V9.39877H42.4688V10.971ZM37.5371 11.8011H42.4785V13.471H37.5371V11.8011ZM43.3086 11.8011H48.2109V13.471H43.3086V11.8011ZM48.2012 14.3011V15.932H43.2988V14.3011H48.2012ZM49.0312 14.3011H53.9238V15.9417H49.0312V14.3011ZM54.7539 14.3011H56.6094L55.5547 15.7171C55.4473 15.8539 55.2812 15.9417 55.1055 15.9417H54.7539V14.3011ZM59.0801 7.0062C59.3926 7.0062 59.6367 7.2601 59.6367 7.56284V8.55893H54.7539V6.99643H59.0801V7.0062ZM53.9238 5.03354V6.17612H49.0312V4.46713H53.3672C53.6699 4.46713 53.9238 4.72104 53.9238 5.03354ZM43.3086 5.03354C43.3086 4.72104 43.5625 4.4769 43.8652 4.4769H48.2012V6.18588H43.2988V5.03354H43.3086ZM38.0938 7.0062H42.4688V8.5687H37.5273V7.5726C37.5371 7.2601 37.791 7.0062 38.0938 7.0062ZM37.5371 14.3011H42.4785V15.932H37.5371V14.3011ZM29.3828 10.7855V12.6605H24.2266C24.0312 12.6605 23.8359 12.6996 23.6699 12.7777V10.7855C23.6699 10.473 23.9238 10.2289 24.2266 10.2289H28.8164C29.1289 10.2191 29.3828 10.473 29.3828 10.7855ZM23.6699 14.7113V14.057C23.6699 13.7445 23.9238 13.5003 24.2266 13.5003H33.709C34.0215 13.5003 34.2656 13.7542 34.2656 14.057V15.932H23.6602V14.7113H23.6699ZM61.4629 24.6527C61.3555 24.8187 61.1797 24.9164 60.9844 24.9164L24.8906 24.9066C23.5137 24.9066 22.2734 24.2718 21.4531 23.2855H62.3223L61.4629 24.6527ZM68.4844 13.5199L62.8594 22.4456H20.916C20.6035 21.8402 20.4375 21.1566 20.4375 20.4242V17.3089C20.4375 17.1624 20.4961 17.016 20.6035 16.9085C20.7109 16.8011 20.8477 16.7425 21.0039 16.7425L55.1152 16.7523C55.5547 16.7523 55.9648 16.5472 56.2285 16.1956L58.7383 12.846C58.8457 12.7093 59.0117 12.6214 59.1875 12.6214L68.0156 12.6507C68.2207 12.6507 68.4062 12.7581 68.5039 12.9437C68.6016 13.1292 68.5918 13.3441 68.4844 13.5199Z" fill="#8891B2"/>
<path d="M62.1074 15.1214C61.209 15.1214 60.4766 15.8539 60.4766 16.7523C60.4766 17.6507 61.209 18.3831 62.1074 18.3831C63.0059 18.3831 63.7383 17.6507 63.7383 16.7523C63.7383 15.8539 63.0059 15.1214 62.1074 15.1214ZM62.1074 17.5531C61.668 17.5531 61.3066 17.1917 61.3066 16.7523C61.3066 16.3128 61.668 15.9515 62.1074 15.9515C62.5469 15.9515 62.9082 16.3128 62.9082 16.7523C62.9082 17.1917 62.5469 17.5531 62.1074 17.5531Z" fill="#8891B2"/>
</g>
<path d="M0.953547 39.8057C0.953547 38.8537 1.17288 37.9997 1.61155 37.2437C2.05955 36.4877 2.66155 35.8997 3.41755 35.4797C4.18288 35.0504 5.01821 34.8357 5.92355 34.8357C6.95955 34.8357 7.87888 35.0924 8.68155 35.6057C9.49355 36.1097 10.0815 36.8284 10.4455 37.7617H8.52755C8.27555 37.2484 7.92555 36.8657 7.47755 36.6137C7.02955 36.3617 6.51155 36.2357 5.92355 36.2357C5.27955 36.2357 4.70555 36.3804 4.20155 36.6697C3.69755 36.9591 3.30088 37.3744 3.01155 37.9157C2.73155 38.4571 2.59155 39.0871 2.59155 39.8057C2.59155 40.5244 2.73155 41.1544 3.01155 41.6957C3.30088 42.2371 3.69755 42.6571 4.20155 42.9557C4.70555 43.2451 5.27955 43.3897 5.92355 43.3897C6.51155 43.3897 7.02955 43.2637 7.47755 43.0117C7.92555 42.7597 8.27555 42.3771 8.52755 41.8637H10.4455C10.0815 42.7971 9.49355 43.5157 8.68155 44.0197C7.87888 44.5237 6.95955 44.7757 5.92355 44.7757C5.00888 44.7757 4.17355 44.5657 3.41755 44.1457C2.66155 43.7164 2.05955 43.1237 1.61155 42.3677C1.17288 41.6117 0.953547 40.7577 0.953547 39.8057ZM15.6597 44.8177C14.9317 44.8177 14.2737 44.6544 13.6857 44.3277C13.0977 43.9917 12.6357 43.5251 12.2997 42.9277C11.9637 42.3211 11.7957 41.6211 11.7957 40.8277C11.7957 40.0437 11.9683 39.3484 12.3137 38.7417C12.659 38.1351 13.1303 37.6684 13.7277 37.3417C14.325 37.0151 14.9923 36.8517 15.7297 36.8517C16.467 36.8517 17.1343 37.0151 17.7317 37.3417C18.329 37.6684 18.8003 38.1351 19.1457 38.7417C19.491 39.3484 19.6637 40.0437 19.6637 40.8277C19.6637 41.6117 19.4863 42.3071 19.1317 42.9137C18.777 43.5204 18.2917 43.9917 17.6757 44.3277C17.069 44.6544 16.397 44.8177 15.6597 44.8177ZM15.6597 43.4317C16.0703 43.4317 16.453 43.3337 16.8077 43.1377C17.1717 42.9417 17.4657 42.6477 17.6897 42.2557C17.9137 41.8637 18.0257 41.3877 18.0257 40.8277C18.0257 40.2677 17.9183 39.7964 17.7037 39.4137C17.489 39.0217 17.2043 38.7277 16.8497 38.5317C16.495 38.3357 16.1123 38.2377 15.7017 38.2377C15.291 38.2377 14.9083 38.3357 14.5537 38.5317C14.2083 38.7277 13.933 39.0217 13.7277 39.4137C13.5223 39.7964 13.4197 40.2677 13.4197 40.8277C13.4197 41.6584 13.6297 42.3024 14.0497 42.7597C14.479 43.2077 15.0157 43.4317 15.6597 43.4317ZM30.5794 36.8517C31.1861 36.8517 31.7274 36.9777 32.2034 37.2297C32.6887 37.4817 33.0667 37.8551 33.3374 38.3497C33.6174 38.8444 33.7574 39.4417 33.7574 40.1417V44.6917H32.1754V40.3797C32.1754 39.6891 32.0027 39.1617 31.6574 38.7977C31.3121 38.4244 30.8407 38.2377 30.2434 38.2377C29.6461 38.2377 29.1701 38.4244 28.8154 38.7977C28.4701 39.1617 28.2974 39.6891 28.2974 40.3797V44.6917H26.7154V40.3797C26.7154 39.6891 26.5427 39.1617 26.1974 38.7977C25.8521 38.4244 25.3807 38.2377 24.7834 38.2377C24.1861 38.2377 23.7101 38.4244 23.3554 38.7977C23.0101 39.1617 22.8374 39.6891 22.8374 40.3797V44.6917H21.2414V36.9777H22.8374V37.8597C23.0987 37.5424 23.4301 37.2951 23.8314 37.1177C24.2327 36.9404 24.6621 36.8517 25.1194 36.8517C25.7354 36.8517 26.2861 36.9824 26.7714 37.2437C27.2567 37.5051 27.6301 37.8831 27.8914 38.3777C28.1247 37.9111 28.4887 37.5424 28.9834 37.2717C29.4781 36.9917 30.0101 36.8517 30.5794 36.8517ZM45.1263 36.8517C45.7329 36.8517 46.2743 36.9777 46.7503 37.2297C47.2356 37.4817 47.6136 37.8551 47.8843 38.3497C48.1643 38.8444 48.3043 39.4417 48.3043 40.1417V44.6917H46.7223V40.3797C46.7223 39.6891 46.5496 39.1617 46.2043 38.7977C45.8589 38.4244 45.3876 38.2377 44.7903 38.2377C44.1929 38.2377 43.7169 38.4244 43.3623 38.7977C43.0169 39.1617 42.8443 39.6891 42.8443 40.3797V44.6917H41.2623V40.3797C41.2623 39.6891 41.0896 39.1617 40.7443 38.7977C40.3989 38.4244 39.9276 38.2377 39.3303 38.2377C38.7329 38.2377 38.2569 38.4244 37.9023 38.7977C37.5569 39.1617 37.3843 39.6891 37.3843 40.3797V44.6917H35.7883V36.9777H37.3843V37.8597C37.6456 37.5424 37.9769 37.2951 38.3783 37.1177C38.7796 36.9404 39.2089 36.8517 39.6663 36.8517C40.2823 36.8517 40.8329 36.9824 41.3183 37.2437C41.8036 37.5051 42.1769 37.8831 42.4383 38.3777C42.6716 37.9111 43.0356 37.5424 43.5303 37.2717C44.0249 36.9917 44.5569 36.8517 45.1263 36.8517ZM57.4052 40.6457C57.4052 40.9351 57.3865 41.1964 57.3492 41.4297H51.4552C51.5018 42.0457 51.7305 42.5404 52.1412 42.9137C52.5518 43.2871 53.0558 43.4737 53.6532 43.4737C54.5118 43.4737 55.1185 43.1144 55.4732 42.3957H57.1952C56.9618 43.1051 56.5372 43.6884 55.9212 44.1457C55.3145 44.5937 54.5585 44.8177 53.6532 44.8177C52.9158 44.8177 52.2532 44.6544 51.6652 44.3277C51.0865 43.9917 50.6292 43.5251 50.2932 42.9277C49.9665 42.3211 49.8032 41.6211 49.8032 40.8277C49.8032 40.0344 49.9618 39.3391 50.2792 38.7417C50.6058 38.1351 51.0585 37.6684 51.6372 37.3417C52.2252 37.0151 52.8972 36.8517 53.6532 36.8517C54.3812 36.8517 55.0298 37.0104 55.5992 37.3277C56.1685 37.6451 56.6118 38.0931 56.9292 38.6717C57.2465 39.2411 57.4052 39.8991 57.4052 40.6457ZM55.7392 40.1417C55.7298 39.5537 55.5198 39.0824 55.1092 38.7277C54.6985 38.3731 54.1898 38.1957 53.5832 38.1957C53.0325 38.1957 52.5612 38.3731 52.1692 38.7277C51.7772 39.0731 51.5438 39.5444 51.4692 40.1417H55.7392ZM60.5718 38.0977C60.8051 37.7057 61.1131 37.4024 61.4958 37.1877C61.8878 36.9637 62.3498 36.8517 62.8818 36.8517V38.5037H62.4758C61.8504 38.5037 61.3744 38.6624 61.0478 38.9797C60.7304 39.2971 60.5718 39.8477 60.5718 40.6317V44.6917H58.9758V36.9777H60.5718V38.0977ZM63.8168 40.8277C63.8168 40.0344 63.9755 39.3391 64.2928 38.7417C64.6195 38.1351 65.0675 37.6684 65.6368 37.3417C66.2062 37.0151 66.8595 36.8517 67.5968 36.8517C68.5302 36.8517 69.3002 37.0757 69.9068 37.5237C70.5228 37.9624 70.9382 38.5924 71.1528 39.4137H69.4308C69.2908 39.0311 69.0668 38.7324 68.7588 38.5177C68.4508 38.3031 68.0635 38.1957 67.5968 38.1957C66.9435 38.1957 66.4208 38.4291 66.0288 38.8957C65.6462 39.3531 65.4548 39.9971 65.4548 40.8277C65.4548 41.6584 65.6462 42.3071 66.0288 42.7737C66.4208 43.2404 66.9435 43.4737 67.5968 43.4737C68.5208 43.4737 69.1322 43.0677 69.4308 42.2557H71.1528C70.9288 43.0397 70.5088 43.6651 69.8928 44.1317C69.2768 44.5891 68.5115 44.8177 67.5968 44.8177C66.8595 44.8177 66.2062 44.6544 65.6368 44.3277C65.0675 43.9917 64.6195 43.5251 64.2928 42.9277C63.9755 42.3211 63.8168 41.6211 63.8168 40.8277ZM73.5554 35.9557C73.266 35.9557 73.0234 35.8577 72.8274 35.6617C72.6314 35.4657 72.5334 35.2231 72.5334 34.9337C72.5334 34.6444 72.6314 34.4017 72.8274 34.2057C73.0234 34.0097 73.266 33.9117 73.5554 33.9117C73.8354 33.9117 74.0734 34.0097 74.2694 34.2057C74.4654 34.4017 74.5634 34.6444 74.5634 34.9337C74.5634 35.2231 74.4654 35.4657 74.2694 35.6617C74.0734 35.8577 73.8354 35.9557 73.5554 35.9557ZM74.3394 36.9777V44.6917H72.7434V36.9777H74.3394ZM75.9028 40.7997C75.9028 40.0251 76.0614 39.3391 76.3788 38.7417C76.7054 38.1444 77.1441 37.6824 77.6948 37.3557C78.2548 37.0197 78.8708 36.8517 79.5428 36.8517C80.1494 36.8517 80.6768 36.9731 81.1248 37.2157C81.5821 37.4491 81.9461 37.7431 82.2168 38.0977V36.9777H83.8268V44.6917H82.2168V43.5437C81.9461 43.9077 81.5774 44.2111 81.1108 44.4537C80.6441 44.6964 80.1121 44.8177 79.5148 44.8177C78.8521 44.8177 78.2454 44.6497 77.6948 44.3137C77.1441 43.9684 76.7054 43.4924 76.3788 42.8857C76.0614 42.2697 75.9028 41.5744 75.9028 40.7997ZM82.2168 40.8277C82.2168 40.2957 82.1048 39.8337 81.8808 39.4417C81.6661 39.0497 81.3814 38.7511 81.0268 38.5457C80.6721 38.3404 80.2894 38.2377 79.8788 38.2377C79.4681 38.2377 79.0854 38.3404 78.7308 38.5457C78.3761 38.7417 78.0868 39.0357 77.8628 39.4277C77.6481 39.8104 77.5408 40.2677 77.5408 40.7997C77.5408 41.3317 77.6481 41.7984 77.8628 42.1997C78.0868 42.6011 78.3761 42.9091 78.7308 43.1237C79.0948 43.3291 79.4774 43.4317 79.8788 43.4317C80.2894 43.4317 80.6721 43.3291 81.0268 43.1237C81.3814 42.9184 81.6661 42.6197 81.8808 42.2277C82.1048 41.8264 82.2168 41.3597 82.2168 40.8277ZM87.519 34.3317V44.6917H85.923V34.3317H87.519Z" fill="#8891B2"/>
<defs>
<clipPath id="clip0_83_264">
<rect width="50" height="29" fill="white" transform="translate(19.5 0.691742)"/>
</clipPath>
</defs>
</svg>
