<svg width="80" height="49" viewBox="0 0 80 49" fill="none" xmlns="http://www.w3.org/2000/svg">
<g clip-path="url(#clip0_83_287)">
<path d="M59.567 3.46532C59.5572 3.38582 59.5315 3.30924 59.4916 3.24032C59.4625 3.18294 59.4218 3.13254 59.3722 3.09246L59.2967 3.04746C59.2582 3.01972 59.2158 2.99806 59.171 2.98317C59.1418 2.97954 59.1122 2.97954 59.083 2.98317H58.8567V2.90603C58.8067 2.91708 58.7581 2.93436 58.7122 2.95746L58.6367 2.99603H58.5927L49.6482 9.90674C49.6508 9.91728 49.6508 9.92834 49.6482 9.93889C49.6091 9.98168 49.5754 10.0292 49.5476 10.0803C49.5348 10.0982 49.5242 10.1176 49.5162 10.1382C49.5174 10.1531 49.5174 10.1682 49.5162 10.1832L47.4482 16.2132C46.9956 16.2132 46.543 16.2517 46.0967 16.2646V10.421C46.0967 10.2505 46.0305 10.087 45.9126 9.96646C45.7947 9.8459 45.6349 9.77817 45.4682 9.77817H40.6282V7.45746C40.6282 7.28696 40.5619 7.12345 40.4441 7.00289C40.3262 6.88233 40.1663 6.8146 39.9996 6.8146H37.6613V1.73603C37.6613 1.56553 37.5951 1.40202 37.4772 1.28146C37.3593 1.1609 37.1994 1.09317 37.0327 1.09317H33.8899C33.7581 1.09282 33.6295 1.13484 33.5224 1.21328C33.4152 1.29173 33.3349 1.40263 33.2927 1.53032L31.5767 6.8146H29.0624C28.8957 6.8146 28.7359 6.88233 28.618 7.00289C28.5001 7.12345 28.4339 7.28696 28.4339 7.45746V14.696C25.1742 14.0501 21.9754 13.1166 18.8733 11.906C18.7764 11.8649 18.671 11.8493 18.5667 11.8605C18.4624 11.8718 18.3625 11.9095 18.2762 11.9703C18.1844 12.0334 18.1105 12.12 18.0619 12.2216C18.0134 12.3232 17.9919 12.4361 17.9996 12.5489C18.0237 13.6798 18.1543 14.8057 18.3893 15.911C18.3827 15.9515 18.3827 15.9927 18.3893 16.0332C18.5151 16.5949 18.6725 17.1486 18.8607 17.6917C19.6377 19.9252 21.0745 21.8564 22.9721 23.2178C24.8697 24.5792 27.1342 25.3035 29.4522 25.2903H55.8522C56.0189 25.2903 56.1787 25.2226 56.2966 25.102C56.4145 24.9815 56.4807 24.818 56.4807 24.6475V16.001C56.4807 15.9082 56.4611 15.8164 56.4231 15.7321C56.3851 15.6477 56.3297 15.5728 56.2607 15.5125C56.1915 15.4514 56.1101 15.4066 56.0221 15.3811C55.9342 15.3555 55.8419 15.3499 55.7516 15.3646C54.8716 15.5125 53.9979 15.6346 53.1304 15.7439L58.555 5.63174L60.7424 24.7246C60.761 24.8814 60.8353 25.0257 60.9512 25.1301C61.0672 25.2344 61.2166 25.2915 61.371 25.2903H61.4464C61.5286 25.2807 61.6082 25.2547 61.6805 25.2136C61.7528 25.1725 61.8165 25.1173 61.8678 25.051C61.9192 24.9847 61.9573 24.9087 61.9799 24.8273C62.0025 24.7459 62.0092 24.6608 61.9996 24.5767L59.5733 3.47817L59.567 3.46532ZM44.7579 11.0639V16.3225C43.3436 16.3225 41.9733 16.3225 40.6407 16.2453V11.0639H44.7579ZM34.3424 2.37889H36.4104V6.8146H32.8904L34.3424 2.37889ZM29.6784 8.10031H39.371V16.181C36.1121 15.9781 32.8687 15.568 29.6596 14.9532L29.6784 8.10031ZM29.4584 24.0046C27.3957 24.0219 25.379 23.381 23.689 22.1712C21.9991 20.9613 20.72 19.2427 20.0299 17.2546C19.9859 17.126 19.9482 16.9975 19.9104 16.8689C27.7561 19.3786 35.9159 20.7124 44.1356 20.8289C47.854 20.8522 51.5644 20.473 55.2047 19.6975V24.0046H29.4584ZM55.2299 18.3796C39.5596 21.9346 22.123 16.271 19.5584 15.3903C19.4355 14.7532 19.3494 14.1092 19.3007 13.4617C22.3937 14.5707 25.5618 15.4474 28.7796 16.0846C28.8633 16.1204 28.9528 16.14 29.0436 16.1425C32.6314 16.8501 36.2627 17.3033 39.9116 17.4989C39.9116 17.4989 39.9744 17.4989 40.0122 17.4989H40.075C41.7659 17.5825 43.5196 17.621 45.3424 17.5889H45.4367C46.2099 17.5889 46.9893 17.5439 47.775 17.5053H47.8944C50.3483 17.3808 52.7945 17.1298 55.2236 16.7532L55.2299 18.3796ZM48.7242 16.1682L50.2579 11.6682L52.4579 14.2975L51.5967 15.9046C50.6287 16.0267 49.667 16.1039 48.7242 16.1682ZM53.1242 13.1082L50.9619 10.5367L56.971 5.8696L53.1242 13.1082Z" fill="#8891B2"/>
<path d="M37.0331 10.6589H32.0045C31.8378 10.6589 31.678 10.7266 31.5601 10.8472C31.4422 10.9677 31.376 11.1313 31.376 11.3017C31.376 11.4722 31.4422 11.6358 31.5601 11.7563C31.678 11.8769 31.8378 11.9446 32.0045 11.9446H37.0331C37.1998 11.9446 37.3597 11.8769 37.4776 11.7563C37.5955 11.6358 37.6617 11.4722 37.6617 11.3017C37.6617 11.1313 37.5955 10.9677 37.4776 10.8472C37.3597 10.7266 37.1998 10.6589 37.0331 10.6589Z" fill="#8891B2"/>
</g>
<path d="M21.9069 34.9617V36.2637H17.7769V39.1337H20.9969V40.4357H17.7769V44.6917H16.1809V34.9617H21.9069ZM24.1979 35.9557C23.9086 35.9557 23.6659 35.8577 23.4699 35.6617C23.2739 35.4657 23.1759 35.2231 23.1759 34.9337C23.1759 34.6444 23.2739 34.4017 23.4699 34.2057C23.6659 34.0097 23.9086 33.9117 24.1979 33.9117C24.4779 33.9117 24.7159 34.0097 24.9119 34.2057C25.1079 34.4017 25.2059 34.6444 25.2059 34.9337C25.2059 35.2231 25.1079 35.4657 24.9119 35.6617C24.7159 35.8577 24.4779 35.9557 24.1979 35.9557ZM24.9819 36.9777V44.6917H23.3859V36.9777H24.9819ZM29.8773 44.8177C29.2707 44.8177 28.7247 44.7104 28.2393 44.4957C27.7633 44.2717 27.3853 43.9731 27.1053 43.5997C26.8253 43.2171 26.676 42.7924 26.6573 42.3257H28.3093C28.3373 42.6524 28.4913 42.9277 28.7713 43.1517C29.0607 43.3664 29.42 43.4737 29.8493 43.4737C30.2973 43.4737 30.6427 43.3897 30.8853 43.2217C31.1373 43.0444 31.2633 42.8204 31.2633 42.5497C31.2633 42.2604 31.1233 42.0457 30.8433 41.9057C30.5727 41.7657 30.1387 41.6117 29.5413 41.4437C28.9627 41.2851 28.4913 41.1311 28.1273 40.9817C27.7633 40.8324 27.446 40.6037 27.1753 40.2957C26.914 39.9877 26.7833 39.5817 26.7833 39.0777C26.7833 38.6671 26.9047 38.2937 27.1473 37.9577C27.39 37.6124 27.7353 37.3417 28.1833 37.1457C28.6407 36.9497 29.1633 36.8517 29.7513 36.8517C30.6287 36.8517 31.3333 37.0757 31.8653 37.5237C32.4067 37.9624 32.696 38.5644 32.7333 39.3297H31.1373C31.1093 38.9844 30.9693 38.7091 30.7173 38.5037C30.4653 38.2984 30.1247 38.1957 29.6953 38.1957C29.2753 38.1957 28.9533 38.2751 28.7293 38.4337C28.5053 38.5924 28.3933 38.8024 28.3933 39.0637C28.3933 39.2691 28.468 39.4417 28.6173 39.5817C28.7667 39.7217 28.9487 39.8337 29.1633 39.9177C29.378 39.9924 29.6953 40.0904 30.1153 40.2117C30.6753 40.3611 31.1327 40.5151 31.4873 40.6737C31.8513 40.8231 32.164 41.0471 32.4253 41.3457C32.6867 41.6444 32.822 42.0411 32.8313 42.5357C32.8313 42.9744 32.71 43.3664 32.4673 43.7117C32.2247 44.0571 31.8793 44.3277 31.4313 44.5237C30.9927 44.7197 30.4747 44.8177 29.8773 44.8177ZM38.5459 36.8517C39.1339 36.8517 39.6565 36.9777 40.1139 37.2297C40.5805 37.4817 40.9445 37.8551 41.2059 38.3497C41.4765 38.8444 41.6119 39.4417 41.6119 40.1417V44.6917H40.0299V40.3797C40.0299 39.6891 39.8572 39.1617 39.5119 38.7977C39.1665 38.4244 38.6952 38.2377 38.0979 38.2377C37.5005 38.2377 37.0245 38.4244 36.6699 38.7977C36.3245 39.1617 36.1519 39.6891 36.1519 40.3797V44.6917H34.5559V34.3317H36.1519V37.8737C36.4225 37.5471 36.7632 37.2951 37.1739 37.1177C37.5939 36.9404 38.0512 36.8517 38.5459 36.8517ZM44.4597 35.9557C44.1703 35.9557 43.9277 35.8577 43.7317 35.6617C43.5357 35.4657 43.4377 35.2231 43.4377 34.9337C43.4377 34.6444 43.5357 34.4017 43.7317 34.2057C43.9277 34.0097 44.1703 33.9117 44.4597 33.9117C44.7397 33.9117 44.9777 34.0097 45.1737 34.2057C45.3697 34.4017 45.4677 34.6444 45.4677 34.9337C45.4677 35.2231 45.3697 35.4657 45.1737 35.6617C44.9777 35.8577 44.7397 35.9557 44.4597 35.9557ZM45.2437 36.9777V44.6917H43.6477V36.9777H45.2437ZM51.2311 36.8517C51.8377 36.8517 52.3791 36.9777 52.8551 37.2297C53.3404 37.4817 53.7184 37.8551 53.9891 38.3497C54.2597 38.8444 54.3951 39.4417 54.3951 40.1417V44.6917H52.8131V40.3797C52.8131 39.6891 52.6404 39.1617 52.2951 38.7977C51.9497 38.4244 51.4784 38.2377 50.8811 38.2377C50.2837 38.2377 49.8077 38.4244 49.4531 38.7977C49.1077 39.1617 48.9351 39.6891 48.9351 40.3797V44.6917H47.3391V36.9777H48.9351V37.8597C49.1964 37.5424 49.5277 37.2951 49.9291 37.1177C50.3397 36.9404 50.7737 36.8517 51.2311 36.8517ZM59.5389 36.8517C60.1362 36.8517 60.6635 36.9731 61.1209 37.2157C61.5875 37.4491 61.9515 37.7431 62.2129 38.0977V36.9777H63.8229V44.8177C63.8229 45.5271 63.6735 46.1571 63.3749 46.7077C63.0762 47.2677 62.6422 47.7064 62.0729 48.0237C61.5129 48.3411 60.8409 48.4997 60.0569 48.4997C59.0115 48.4997 58.1435 48.2524 57.4529 47.7577C56.7622 47.2724 56.3702 46.6097 56.2769 45.7697H57.8589C57.9802 46.1711 58.2369 46.4931 58.6289 46.7357C59.0302 46.9877 59.5062 47.1137 60.0569 47.1137C60.7009 47.1137 61.2189 46.9177 61.6109 46.5257C62.0122 46.1337 62.2129 45.5644 62.2129 44.8177V43.5297C61.9422 43.8937 61.5735 44.2017 61.1069 44.4537C60.6495 44.6964 60.1269 44.8177 59.5389 44.8177C58.8669 44.8177 58.2509 44.6497 57.6909 44.3137C57.1402 43.9684 56.7015 43.4924 56.3749 42.8857C56.0575 42.2697 55.8989 41.5744 55.8989 40.7997C55.8989 40.0251 56.0575 39.3391 56.3749 38.7417C56.7015 38.1444 57.1402 37.6824 57.6909 37.3557C58.2509 37.0197 58.8669 36.8517 59.5389 36.8517ZM62.2129 40.8277C62.2129 40.2957 62.1009 39.8337 61.8769 39.4417C61.6622 39.0497 61.3775 38.7511 61.0229 38.5457C60.6682 38.3404 60.2855 38.2377 59.8749 38.2377C59.4642 38.2377 59.0815 38.3404 58.7269 38.5457C58.3722 38.7417 58.0829 39.0357 57.8589 39.4277C57.6442 39.8104 57.5369 40.2677 57.5369 40.7997C57.5369 41.3317 57.6442 41.7984 57.8589 42.1997C58.0829 42.6011 58.3722 42.9091 58.7269 43.1237C59.0909 43.3291 59.4735 43.4317 59.8749 43.4317C60.2855 43.4317 60.6682 43.3291 61.0229 43.1237C61.3775 42.9184 61.6622 42.6197 61.8769 42.2277C62.1009 41.8264 62.2129 41.3597 62.2129 40.8277Z" fill="#8891B2"/>
<defs>
<clipPath id="clip0_83_287">
<rect width="44" height="25" fill="white" transform="translate(18 0.691742)"/>
</clipPath>
</defs>
</svg>
