<svg width="80" height="46" viewBox="0 0 80 46" fill="none" xmlns="http://www.w3.org/2000/svg">
<path fill-rule="evenodd" clip-rule="evenodd" d="M61.9892 18.6298C56.483 20.7569 50.6515 21.8528 44.7702 21.8657L17.5598 21.9456C17.4919 21.9456 17.4267 21.9734 17.3787 22.0228C17.3306 22.0723 17.3037 22.1393 17.3037 22.2093V24.1908C17.3037 24.3426 17.4201 24.4625 17.5598 24.4625H51.4621C55.763 24.4625 59.6835 22.2652 61.9969 18.6298H61.9892ZM51.4544 25.581H17.5598C17.2029 25.5789 16.8613 25.4315 16.6097 25.171C16.358 24.9105 16.2168 24.5581 16.2168 24.1908V22.2093C16.2168 21.4422 16.8146 20.827 17.5598 20.827L44.7702 20.7471C51.0585 20.7231 57.1915 19.4687 63.0139 17.0158L63.0372 17.0078C63.1399 16.9661 63.2525 16.9576 63.3601 16.9834C63.4676 17.0092 63.5649 17.0681 63.6391 17.1523C63.7133 17.2365 63.7608 17.3419 63.7753 17.4545C63.7898 17.5671 63.7707 17.6817 63.7204 17.7828C62.5812 20.1268 60.8303 22.098 58.6638 23.4754C56.4973 24.8527 54.0009 25.5819 51.4544 25.581Z" fill="#0D1A8B"/>
<path fill-rule="evenodd" clip-rule="evenodd" d="M18.7943 21.9376C18.6789 21.9382 18.5663 21.901 18.4728 21.8314C18.3793 21.7617 18.3098 21.6632 18.2743 21.5501C18.2389 21.4371 18.2393 21.3154 18.2756 21.2026C18.3118 21.0898 18.3821 20.9918 18.476 20.9229L24.12 16.7361V16.7202L21.5581 14.9064C21.3516 14.762 21.1788 14.5723 21.052 14.351C20.9252 14.1297 20.8474 13.8823 20.8244 13.6265C20.8014 13.3707 20.8337 13.1128 20.9189 12.8713C21.0042 12.6298 21.1402 12.4108 21.3174 12.2298C21.5692 11.9687 21.8949 11.7964 22.2478 11.7375C22.6006 11.6787 22.9625 11.7363 23.2815 11.9022L29.0264 14.8745C32.0463 16.4405 35.4156 17.2715 38.7615 17.2715H38.8004C42.845 17.2715 46.0823 16.7921 48.1629 15.8812C49.2265 15.4178 50.3056 15.1381 51.3769 15.0423L61.1586 14.2113C61.3028 14.1996 61.4455 14.2474 61.5554 14.344C61.6653 14.4407 61.7334 14.5783 61.7448 14.7266C61.7561 14.875 61.7097 15.0219 61.6158 15.135C61.5219 15.2481 61.3882 15.3182 61.244 15.3299L51.47 16.1609C50.5152 16.2408 49.5447 16.4964 48.5899 16.9119C46.3385 17.9027 43.0391 18.398 38.7615 18.3901C35.2448 18.3901 31.7047 17.5191 28.5295 15.8732L22.7847 12.9009C22.688 12.8503 22.5798 12.8274 22.4715 12.8345C22.3633 12.8416 22.2588 12.8785 22.1692 12.9414C22.0795 13.0043 22.0079 13.0908 21.9619 13.1919C21.9158 13.293 21.897 13.405 21.9074 13.5162C21.9145 13.6089 21.9419 13.6988 21.9877 13.7791C22.0334 13.8594 22.0962 13.9279 22.1714 13.9796L24.7333 15.7933C24.8788 15.8961 24.9982 16.0334 25.0814 16.1936C25.1646 16.3539 25.2092 16.5323 25.2115 16.7139C25.2138 16.8956 25.1737 17.0752 25.0945 17.2375C25.0153 17.3999 24.8994 17.5403 24.7566 17.647L19.1126 21.8337C19.0198 21.9019 18.9084 21.9382 18.7943 21.9376Z" fill="#0D1A8B"/>
<path fill-rule="evenodd" clip-rule="evenodd" d="M48.8695 16.7601C48.7589 16.7614 48.6506 16.728 48.5589 16.6642L42.4182 12.4375C41.7331 13.114 40.8804 13.5836 39.9535 13.7949C39.0266 14.0063 38.061 13.9513 37.1624 13.636C36.2396 13.3332 35.3771 12.8623 34.6161 12.2458L26.8838 10.7037C26.8304 10.692 26.7747 10.7 26.7265 10.7263C26.6783 10.7526 26.6405 10.7955 26.6199 10.8475L25.4787 13.628C25.422 13.7647 25.315 13.8726 25.181 13.9281C25.0471 13.9835 24.8972 13.9819 24.7644 13.9237C24.6316 13.8654 24.5268 13.7552 24.4729 13.6174C24.419 13.4795 24.4206 13.3253 24.4772 13.1886L25.6106 10.4161C25.7307 10.129 25.9423 9.89257 26.2104 9.74586C26.4786 9.59915 26.7873 9.5509 27.0857 9.60907L34.9577 11.1751C35.0526 11.1935 35.141 11.2377 35.2138 11.3029C35.3691 11.4388 38.9402 14.5709 41.9679 11.3349C42.0558 11.2406 42.1731 11.181 42.2993 11.1664C42.4256 11.1518 42.5528 11.1831 42.6588 11.255L49.1722 15.7294C49.2768 15.7936 49.3574 15.892 49.4011 16.0089C49.4448 16.1259 49.4491 16.2545 49.4133 16.3743C49.3775 16.494 49.3037 16.5979 49.2037 16.6693C49.1037 16.7407 48.9832 16.7755 48.8617 16.7681L48.8695 16.7601ZM63.2393 18.0944C63.1543 18.0935 63.0707 18.0721 62.9952 18.0318C62.9197 17.9916 62.8544 17.9337 62.8046 17.8627L60.8016 15.1461L57.7584 12.2777C56.0674 10.674 54.0972 9.41345 51.9515 8.56239L49.5992 7.62756C49.5371 7.60659 49.4792 7.5741 49.4284 7.53168L46.7889 5.23056H42.6511C42.509 5.23056 42.3728 5.28865 42.2723 5.39204C42.1718 5.49543 42.1154 5.63565 42.1154 5.78187C42.1154 5.92809 42.1718 6.06831 42.2723 6.1717C42.3728 6.27509 42.509 6.33318 42.6511 6.33318H45.4924C45.6366 6.33318 45.7748 6.39211 45.8767 6.49699C45.9786 6.60188 46.0359 6.74414 46.0359 6.89248C46.0359 7.04081 45.9786 7.18307 45.8767 7.28796C45.7748 7.39285 45.6366 7.45178 45.4924 7.45178H42.6511C42.2391 7.42247 41.8534 7.23338 41.5716 6.92268C41.2899 6.61199 41.1332 6.20285 41.1332 5.77788C41.1332 5.3529 41.2899 4.94376 41.5716 4.63307C41.8534 4.32237 42.2391 4.13328 42.6511 4.10397H46.9985C47.1269 4.10535 47.2507 4.15347 47.3479 4.2398L50.065 6.61283L52.3474 7.5157C54.6298 8.42656 56.6949 9.75289 58.496 11.4548L61.5702 14.3551C61.5958 14.3795 61.6192 14.4063 61.6401 14.435L63.6741 17.1836C63.7369 17.2666 63.7757 17.3662 63.786 17.4709C63.7962 17.5757 63.7776 17.6812 63.7322 17.7755C63.6868 17.8698 63.6165 17.949 63.5293 18.004C63.4421 18.059 63.3416 18.0956 63.2393 18.0944Z" fill="#0D1A8B"/>
<path fill-rule="evenodd" clip-rule="evenodd" d="M42.3555 12.2857C42.2367 12.2856 42.1212 12.2455 42.0267 12.1714C41.9322 12.0974 41.8639 11.9935 41.8322 11.8757C41.8005 11.7579 41.8072 11.6326 41.8512 11.5191C41.8953 11.4055 41.9742 11.31 42.076 11.247L49.5055 6.62081C49.6288 6.54952 49.7743 6.53051 49.911 6.56783C50.0477 6.60515 50.1649 6.69585 50.2376 6.82068C50.3104 6.9455 50.333 7.09461 50.3007 7.23632C50.2684 7.37803 50.1836 7.50118 50.0645 7.57961L42.635 12.2058C42.5506 12.258 42.454 12.2856 42.3555 12.2857Z" fill="#0D1A8B"/>
<path fill-rule="evenodd" clip-rule="evenodd" d="M45.4926 10.3282C45.4213 10.3282 45.3506 10.3137 45.2847 10.2856C45.2188 10.2575 45.1588 10.2163 45.1084 10.1644C45.0579 10.1124 45.0179 10.0508 44.9906 9.98291C44.9633 9.91506 44.9492 9.84233 44.9492 9.76888V4.67127C44.9492 4.52293 45.0065 4.38067 45.1084 4.27578C45.2103 4.1709 45.3485 4.11197 45.4926 4.11197C45.6368 4.11197 45.775 4.1709 45.8769 4.27578C45.9788 4.38067 46.0361 4.52293 46.0361 4.67127V9.76888C46.0361 9.84233 46.022 9.91506 45.9947 9.98291C45.9674 10.0508 45.9274 10.1124 45.8769 10.1644C45.8264 10.2163 45.7665 10.2575 45.7006 10.2856C45.6347 10.3137 45.564 10.3282 45.4926 10.3282Z" fill="#0D1A8B"/>
<path d="M23.7154 34.9617V41.9757C23.7154 42.8437 23.4494 43.5297 22.9174 44.0337C22.3947 44.5377 21.704 44.7897 20.8454 44.7897C19.9867 44.7897 19.2914 44.5377 18.7594 44.0337C18.2367 43.5297 17.9754 42.8437 17.9754 41.9757H19.5854C19.5947 42.4051 19.702 42.7457 19.9074 42.9977C20.122 43.2497 20.4347 43.3757 20.8454 43.3757C21.256 43.3757 21.5687 43.2497 21.7834 42.9977C21.998 42.7364 22.1054 42.3957 22.1054 41.9757V34.9617H23.7154ZM33.3817 40.6457C33.3817 40.9351 33.3631 41.1964 33.3257 41.4297H27.4317C27.4784 42.0457 27.7071 42.5404 28.1177 42.9137C28.5284 43.2871 29.0324 43.4737 29.6297 43.4737C30.4884 43.4737 31.0951 43.1144 31.4497 42.3957H33.1717C32.9384 43.1051 32.5137 43.6884 31.8977 44.1457C31.2911 44.5937 30.5351 44.8177 29.6297 44.8177C28.8924 44.8177 28.2297 44.6544 27.6417 44.3277C27.0631 43.9917 26.6057 43.5251 26.2697 42.9277C25.9431 42.3211 25.7797 41.6211 25.7797 40.8277C25.7797 40.0344 25.9384 39.3391 26.2557 38.7417C26.5824 38.1351 27.0351 37.6684 27.6137 37.3417C28.2017 37.0151 28.8737 36.8517 29.6297 36.8517C30.3577 36.8517 31.0064 37.0104 31.5757 37.3277C32.1451 37.6451 32.5884 38.0931 32.9057 38.6717C33.2231 39.2411 33.3817 39.8991 33.3817 40.6457ZM31.7157 40.1417C31.7064 39.5537 31.4964 39.0824 31.0857 38.7277C30.6751 38.3731 30.1664 38.1957 29.5597 38.1957C29.0091 38.1957 28.5377 38.3731 28.1457 38.7277C27.7537 39.0731 27.5204 39.5444 27.4457 40.1417H31.7157ZM36.8143 38.2797V42.5497C36.8143 42.8391 36.8797 43.0491 37.0103 43.1797C37.1503 43.3011 37.3837 43.3617 37.7103 43.3617H38.6903V44.6917H37.4303C36.7117 44.6917 36.161 44.5237 35.7783 44.1877C35.3957 43.8517 35.2043 43.3057 35.2043 42.5497V38.2797H34.2943V36.9777H35.2043V35.0597H36.8143V36.9777H38.6903V38.2797H36.8143ZM47.004 44.7897C46.3507 44.7897 45.7627 44.6777 45.24 44.4537C44.7174 44.2204 44.3067 43.8937 44.008 43.4737C43.7094 43.0537 43.56 42.5637 43.56 42.0037H45.268C45.3054 42.4237 45.4687 42.7691 45.758 43.0397C46.0567 43.3104 46.472 43.4457 47.004 43.4457C47.5547 43.4457 47.984 43.3151 48.292 43.0537C48.6 42.7831 48.754 42.4377 48.754 42.0177C48.754 41.6911 48.656 41.4251 48.46 41.2197C48.2734 41.0144 48.0354 40.8557 47.746 40.7437C47.466 40.6317 47.074 40.5104 46.57 40.3797C45.9354 40.2117 45.4174 40.0437 45.016 39.8757C44.624 39.6984 44.288 39.4277 44.008 39.0637C43.728 38.6997 43.588 38.2144 43.588 37.6077C43.588 37.0477 43.728 36.5577 44.008 36.1377C44.288 35.7177 44.68 35.3957 45.184 35.1717C45.688 34.9477 46.2714 34.8357 46.934 34.8357C47.8767 34.8357 48.6467 35.0737 49.244 35.5497C49.8507 36.0164 50.1867 36.6604 50.252 37.4817H48.488C48.46 37.1271 48.292 36.8237 47.984 36.5717C47.676 36.3197 47.27 36.1937 46.766 36.1937C46.3087 36.1937 45.9354 36.3104 45.646 36.5437C45.3567 36.7771 45.212 37.1131 45.212 37.5517C45.212 37.8504 45.3007 38.0977 45.478 38.2937C45.6647 38.4804 45.898 38.6297 46.178 38.7417C46.458 38.8537 46.8407 38.9751 47.326 39.1057C47.97 39.2831 48.4927 39.4604 48.894 39.6377C49.3047 39.8151 49.65 40.0904 49.93 40.4637C50.2194 40.8277 50.364 41.3177 50.364 41.9337C50.364 42.4284 50.2287 42.8951 49.958 43.3337C49.6967 43.7724 49.3094 44.1271 48.796 44.3977C48.292 44.6591 47.6947 44.7897 47.004 44.7897ZM55.2993 40.8417L58.8553 44.6917H56.6993L53.8433 41.3737V44.6917H52.2473V34.3317H53.8433V40.3517L56.6433 36.9777H58.8553L55.2993 40.8417ZM60.8112 35.9557C60.5219 35.9557 60.2792 35.8577 60.0832 35.6617C59.8872 35.4657 59.7892 35.2231 59.7892 34.9337C59.7892 34.6444 59.8872 34.4017 60.0832 34.2057C60.2792 34.0097 60.5219 33.9117 60.8112 33.9117C61.0912 33.9117 61.3292 34.0097 61.5252 34.2057C61.7212 34.4017 61.8192 34.6444 61.8192 34.9337C61.8192 35.2231 61.7212 35.4657 61.5252 35.6617C61.3292 35.8577 61.0912 35.9557 60.8112 35.9557ZM61.5952 36.9777V44.6917H59.9992V36.9777H61.5952Z" fill="#0D1A8B"/>
</svg>
