<svg width="89" height="48" viewBox="0 0 89 48" fill="none" xmlns="http://www.w3.org/2000/svg">
<path d="M62.8836 21.315L63.809 17.6159C63.8518 17.4469 63.8564 17.2699 63.8224 17.0987C63.7885 16.9275 63.7169 16.7667 63.6132 16.6288C63.5103 16.4903 63.378 16.3781 63.2265 16.3012C63.075 16.2242 62.9083 16.1845 62.7396 16.1851H52.2213C52.5332 14.4236 53.2318 12.757 54.2625 11.3304C54.8326 10.5418 55.7407 10.0709 56.6916 10.0709H59.735C60.6907 10.0709 61.4941 9.24784 61.447 8.2108C61.4039 7.26323 60.6377 6.52077 59.7028 6.52077H57.9503L61.112 3.24642C61.2721 3.08114 61.3812 2.87026 61.4253 2.64061C61.4693 2.41096 61.4465 2.17292 61.3596 1.95677C61.2734 1.74033 61.1269 1.55532 60.939 1.42527C60.751 1.29522 60.5299 1.22599 60.3038 1.22639H56.501C56.2758 1.22574 56.0527 1.27135 55.8447 1.36059C55.6367 1.44983 55.4478 1.58093 55.2891 1.74629L50.6791 6.52085H39.3944C38.1256 6.52085 36.92 7.1538 36.1696 8.21356L33.755 11.6235V11.2543C33.755 11.0974 33.6948 10.9469 33.5876 10.8359C33.4805 10.725 33.3352 10.6626 33.1837 10.6626H25.5713C25.4198 10.6626 25.2745 10.725 25.1673 10.8359C25.0602 10.9469 25 11.0974 25 11.2543C25 11.5813 25.2556 11.846 25.5713 11.846H26.3342V13.0294H26.1438C25.9325 13.0288 25.7251 13.0891 25.5451 13.2037C25.365 13.3183 25.2193 13.4826 25.1244 13.6781C25.0284 13.873 24.9867 14.0917 25.004 14.3098C25.0212 14.5278 25.0968 14.7366 25.2223 14.9126L29.5111 20.9698C31.762 24.1489 35.3786 26.0466 39.185 26.0466H60.3735C60.7278 26.0466 61.0734 25.9329 61.3628 25.721C61.6521 25.5091 61.8709 25.2095 61.9891 24.8635H62.8574C63.4874 24.8635 64 24.3326 64 23.6802V22.4968C64 21.8533 63.5016 21.3294 62.8836 21.315ZM62.703 17.3192L62.7027 17.3198C62.7027 17.3195 62.703 17.3195 62.703 17.3192ZM56.0969 2.58294C56.1499 2.52788 56.2128 2.48423 56.2822 2.45451C56.3515 2.42479 56.4259 2.40958 56.501 2.40977L60.3036 2.4104L56.3343 6.52077H52.2951L56.0969 2.58294ZM37.0911 8.91318C37.627 8.15629 38.4881 7.70415 39.3944 7.70415H59.7025C60.0209 7.70415 60.2913 7.95661 60.3054 8.26666C60.3093 8.34672 60.2974 8.42676 60.2705 8.50193C60.2436 8.57709 60.2022 8.6458 60.1488 8.70388C60.0955 8.76195 60.0313 8.80818 59.9601 8.83976C59.889 8.87133 59.8124 8.88759 59.735 8.88754H56.6917C55.3824 8.88754 54.1325 9.53564 53.3478 10.6214C52.1695 12.2516 51.3856 14.1657 51.0618 16.1851H48.4933C48.0495 16.1851 47.6323 16.0104 47.3121 15.6939L50.1308 11.712C50.9598 10.5474 50.1528 8.88762 48.7544 8.88762H43.4336C43.2833 8.88762 43.1367 8.95073 43.0299 9.0611C42.923 9.17215 42.8628 9.32242 42.8623 9.47923V11.2543C42.8623 11.581 43.1182 11.846 43.4336 11.846C43.7489 11.846 44.0049 11.581 44.0049 11.2543V10.0709H48.7486C48.9156 10.0725 49.0465 10.1292 49.1602 10.25C49.2623 10.3612 49.3224 10.5169 49.3224 10.6676C49.3208 10.7946 49.2851 10.9043 49.2096 11.0131L46.4933 14.8488L45.5733 13.896C45.0338 13.3373 44.3164 13.0294 43.5535 13.0294H41.7197V9.47923C41.7197 9.32397 41.6588 9.17076 41.5521 9.0611C41.445 8.95024 41.2999 8.88783 41.1484 8.88754H39.3941C38.8503 8.88754 38.334 9.15909 38.0124 9.61272L36.773 11.3625C36.7287 11.4253 36.6966 11.4964 36.6788 11.5719C36.661 11.6475 36.6577 11.7259 36.6692 11.8028C36.6806 11.8796 36.7066 11.9533 36.7456 12.0198C36.7846 12.0862 36.8359 12.1441 36.8964 12.19C37.1509 12.384 37.5089 12.3243 37.6948 12.0624C37.6954 12.0624 37.6954 12.0615 37.6954 12.0615L38.9341 10.3126C38.9871 10.2378 39.0564 10.1769 39.1363 10.1349C39.2162 10.0929 39.3045 10.071 39.3941 10.0709H40.5771V13.0294H34.1763L37.0911 8.91318ZM32.6124 13.0294H30.6159V11.846H32.6124V13.0294ZM27.4768 11.846H29.4733V13.0294H27.4768V11.846ZM60.3735 24.8632H39.185C35.7411 24.8632 32.469 23.1461 30.4323 20.27L26.1438 14.2128H43.5535C44.0114 14.2128 44.4417 14.3977 44.7654 14.733L46.4736 16.5022C47.0134 17.0609 47.7304 17.3685 48.4934 17.3685H51.5545C51.5548 17.3685 51.5551 17.3688 51.5557 17.3688C51.5563 17.3688 51.5569 17.3685 51.5572 17.3685H62.6905L60.9266 24.4201C60.8949 24.547 60.8233 24.6594 60.7232 24.7396C60.6231 24.8198 60.5001 24.8633 60.3735 24.8632ZM62.8574 23.6802H62.2921L62.5882 22.4968H62.8574V23.6802Z" fill="#8891B2"/>
<path d="M11.4806 34.9617V44.6917H9.88462V38.0277L6.91662 44.6917H5.81062L2.82862 38.0277V44.6917H1.23262V34.9617H2.95462L6.37062 42.5917L9.77262 34.9617H11.4806ZM16.9243 44.8177C16.1963 44.8177 15.5383 44.6544 14.9503 44.3277C14.3623 43.9917 13.9003 43.5251 13.5643 42.9277C13.2283 42.3211 13.0603 41.6211 13.0603 40.8277C13.0603 40.0437 13.233 39.3484 13.5783 38.7417C13.9237 38.1351 14.395 37.6684 14.9923 37.3417C15.5897 37.0151 16.257 36.8517 16.9943 36.8517C17.7317 36.8517 18.399 37.0151 18.9963 37.3417C19.5937 37.6684 20.065 38.1351 20.4103 38.7417C20.7557 39.3484 20.9283 40.0437 20.9283 40.8277C20.9283 41.6117 20.751 42.3071 20.3963 42.9137C20.0417 43.5204 19.5563 43.9917 18.9403 44.3277C18.3337 44.6544 17.6617 44.8177 16.9243 44.8177ZM16.9243 43.4317C17.335 43.4317 17.7177 43.3337 18.0723 43.1377C18.4363 42.9417 18.7303 42.6477 18.9543 42.2557C19.1783 41.8637 19.2903 41.3877 19.2903 40.8277C19.2903 40.2677 19.183 39.7964 18.9683 39.4137C18.7537 39.0217 18.469 38.7277 18.1143 38.5317C17.7597 38.3357 17.377 38.2377 16.9663 38.2377C16.5557 38.2377 16.173 38.3357 15.8183 38.5317C15.473 38.7277 15.1977 39.0217 14.9923 39.4137C14.787 39.7964 14.6843 40.2677 14.6843 40.8277C14.6843 41.6584 14.8943 42.3024 15.3143 42.7597C15.7437 43.2077 16.2803 43.4317 16.9243 43.4317ZM24.3681 38.2797V42.5497C24.3681 42.8391 24.4334 43.0491 24.5641 43.1797C24.7041 43.3011 24.9374 43.3617 25.2641 43.3617H26.2441V44.6917H24.9841C24.2654 44.6917 23.7147 44.5237 23.3321 44.1877C22.9494 43.8517 22.7581 43.3057 22.7581 42.5497V38.2797H21.8481V36.9777H22.7581V35.0597H24.3681V36.9777H26.2441V38.2797H24.3681ZM31.061 44.8177C30.333 44.8177 29.675 44.6544 29.087 44.3277C28.499 43.9917 28.037 43.5251 27.701 42.9277C27.365 42.3211 27.197 41.6211 27.197 40.8277C27.197 40.0437 27.3697 39.3484 27.715 38.7417C28.0604 38.1351 28.5317 37.6684 29.129 37.3417C29.7264 37.0151 30.3937 36.8517 31.131 36.8517C31.8684 36.8517 32.5357 37.0151 33.133 37.3417C33.7304 37.6684 34.2017 38.1351 34.547 38.7417C34.8924 39.3484 35.065 40.0437 35.065 40.8277C35.065 41.6117 34.8877 42.3071 34.533 42.9137C34.1784 43.5204 33.693 43.9917 33.077 44.3277C32.4704 44.6544 31.7984 44.8177 31.061 44.8177ZM31.061 43.4317C31.4717 43.4317 31.8544 43.3337 32.209 43.1377C32.573 42.9417 32.867 42.6477 33.091 42.2557C33.315 41.8637 33.427 41.3877 33.427 40.8277C33.427 40.2677 33.3197 39.7964 33.105 39.4137C32.8904 39.0217 32.6057 38.7277 32.251 38.5317C31.8964 38.3357 31.5137 38.2377 31.103 38.2377C30.6924 38.2377 30.3097 38.3357 29.955 38.5317C29.6097 38.7277 29.3344 39.0217 29.129 39.4137C28.9237 39.7964 28.821 40.2677 28.821 40.8277C28.821 41.6584 29.031 42.3024 29.451 42.7597C29.8804 43.2077 30.417 43.4317 31.061 43.4317ZM38.2388 38.0977C38.4721 37.7057 38.7801 37.4024 39.1628 37.1877C39.5548 36.9637 40.0168 36.8517 40.5488 36.8517V38.5037H40.1428C39.5174 38.5037 39.0414 38.6624 38.7148 38.9797C38.3974 39.2971 38.2388 39.8477 38.2388 40.6317V44.6917H36.6428V36.9777H38.2388V38.0977ZM47.1958 31.4757L43.3878 47.1417H41.8198L45.6138 31.4757H47.1958ZM56.4172 34.9617L53.1972 41.1637V44.6917H51.6012V41.1637L48.3672 34.9617H50.1452L52.3992 39.7357L54.6532 34.9617H56.4172ZM57.1518 40.7997C57.1518 40.0251 57.3105 39.3391 57.6278 38.7417C57.9545 38.1444 58.3931 37.6824 58.9438 37.3557C59.5038 37.0197 60.1198 36.8517 60.7918 36.8517C61.3985 36.8517 61.9258 36.9731 62.3738 37.2157C62.8311 37.4491 63.1951 37.7431 63.4658 38.0977V36.9777H65.0758V44.6917H63.4658V43.5437C63.1951 43.9077 62.8265 44.2111 62.3598 44.4537C61.8931 44.6964 61.3611 44.8177 60.7638 44.8177C60.1011 44.8177 59.4945 44.6497 58.9438 44.3137C58.3931 43.9684 57.9545 43.4924 57.6278 42.8857C57.3105 42.2697 57.1518 41.5744 57.1518 40.7997ZM63.4658 40.8277C63.4658 40.2957 63.3538 39.8337 63.1298 39.4417C62.9151 39.0497 62.6305 38.7511 62.2758 38.5457C61.9211 38.3404 61.5385 38.2377 61.1278 38.2377C60.7171 38.2377 60.3345 38.3404 59.9798 38.5457C59.6251 38.7417 59.3358 39.0357 59.1118 39.4277C58.8971 39.8104 58.7898 40.2677 58.7898 40.7997C58.7898 41.3317 58.8971 41.7984 59.1118 42.1997C59.3358 42.6011 59.6251 42.9091 59.9798 43.1237C60.3438 43.3291 60.7265 43.4317 61.1278 43.4317C61.5385 43.4317 61.9211 43.3291 62.2758 43.1237C62.6305 42.9184 62.9151 42.6197 63.1298 42.2277C63.3538 41.8264 63.4658 41.3597 63.4658 40.8277ZM69.0341 38.2797V42.5497C69.0341 42.8391 69.0994 43.0491 69.2301 43.1797C69.3701 43.3011 69.6034 43.3617 69.9301 43.3617H70.9101V44.6917H69.6501C68.9314 44.6917 68.3807 44.5237 67.9981 44.1877C67.6154 43.8517 67.4241 43.3057 67.4241 42.5497V38.2797H66.5141V36.9777H67.4241V35.0597H69.0341V36.9777H70.9101V38.2797H69.0341ZM71.8491 40.8277C71.8491 40.0344 72.0077 39.3391 72.3251 38.7417C72.6517 38.1351 73.0997 37.6684 73.6691 37.3417C74.2384 37.0151 74.8917 36.8517 75.6291 36.8517C76.5624 36.8517 77.3324 37.0757 77.9391 37.5237C78.5551 37.9624 78.9704 38.5924 79.1851 39.4137H77.4631C77.3231 39.0311 77.0991 38.7324 76.7911 38.5177C76.4831 38.3031 76.0957 38.1957 75.6291 38.1957C74.9757 38.1957 74.4531 38.4291 74.0611 38.8957C73.6784 39.3531 73.4871 39.9971 73.4871 40.8277C73.4871 41.6584 73.6784 42.3071 74.0611 42.7737C74.4531 43.2404 74.9757 43.4737 75.6291 43.4737C76.5531 43.4737 77.1644 43.0677 77.4631 42.2557H79.1851C78.9611 43.0397 78.5411 43.6651 77.9251 44.1317C77.3091 44.5891 76.5437 44.8177 75.6291 44.8177C74.8917 44.8177 74.2384 44.6544 73.6691 44.3277C73.0997 43.9917 72.6517 43.5251 72.3251 42.9277C72.0077 42.3211 71.8491 41.6211 71.8491 40.8277ZM84.7656 36.8517C85.3536 36.8517 85.8763 36.9777 86.3336 37.2297C86.8003 37.4817 87.1643 37.8551 87.4256 38.3497C87.6963 38.8444 87.8316 39.4417 87.8316 40.1417V44.6917H86.2496V40.3797C86.2496 39.6891 86.0769 39.1617 85.7316 38.7977C85.3863 38.4244 84.9149 38.2377 84.3176 38.2377C83.7203 38.2377 83.2443 38.4244 82.8896 38.7977C82.5443 39.1617 82.3716 39.6891 82.3716 40.3797V44.6917H80.7756V34.3317H82.3716V37.8737C82.6423 37.5471 82.9829 37.2951 83.3936 37.1177C83.8136 36.9404 84.2709 36.8517 84.7656 36.8517Z" fill="#8891B2"/>
</svg>
