<svg width="80" height="46" viewBox="0 0 80 46" fill="none" xmlns="http://www.w3.org/2000/svg">
<path d="M61.6369 13.205L59.965 11.5332C58.6224 10.1873 56.9989 9.15468 55.2108 8.50924C53.4226 7.8638 51.5139 7.62147 49.6212 7.79956L48.5165 7.90269C44.5751 3.02691 40.8619 2.15659 34.2111 2.26284C33.9732 2.26252 33.7387 2.319 33.527 2.42757C33.3153 2.53614 33.1326 2.69367 32.9941 2.88706C32.8556 3.08046 32.7652 3.30412 32.7305 3.53947C32.6958 3.77482 32.7178 4.01505 32.7947 4.24019L34.4798 9.20894L21.4376 10.4214C20.5328 10.5017 19.691 10.9188 19.079 11.5901C18.467 12.2614 18.1294 13.138 18.1329 14.0464C18.122 14.2207 18.1111 16.8027 18.1829 16.9011L19.8064 21.2293C20.0171 21.7858 20.3917 22.2652 20.8808 22.6042C21.3699 22.9432 21.9504 23.1257 22.5454 23.1277H48.4892C50.7369 23.1302 52.9502 22.5765 54.9319 21.516C56.9137 20.4554 58.6022 18.921 59.847 17.0496L61.7454 14.2003C61.8235 14.0726 61.8681 13.9272 61.8751 13.7777C61.8715 13.5632 61.7863 13.3582 61.6369 13.2042V13.205ZM34.3033 3.82534C36.2486 3.82925 40.5736 3.85738 42.5533 4.91128C44.0752 5.73075 45.4476 6.80156 46.6126 8.07847L36.0798 9.05894L34.3033 3.82534ZM19.6954 15.7917V14.0472C19.6934 13.5285 19.8861 13.0279 20.2355 12.6446C20.5849 12.2612 21.0655 12.0229 21.5822 11.9769L49.7658 9.35581C51.5415 9.19452 53.3303 9.44949 54.9903 10.1004C56.6502 10.7514 58.1356 11.7804 59.3283 13.1058L19.6954 15.7917ZM58.547 16.1832C57.4446 17.8404 55.9494 19.1992 54.1945 20.1384C52.4396 21.0776 50.4796 21.568 48.4892 21.566H22.5454C22.2683 21.5651 21.9979 21.48 21.7701 21.3221C21.5423 21.1642 21.3678 20.9409 21.2697 20.6816L20.015 17.3363L59.5665 14.655L58.547 16.1832Z" fill="#8891B2"/>
<path d="M23.9199 20.2691H32.498C32.7052 20.2691 32.904 20.1868 33.0505 20.0403C33.197 19.8938 33.2793 19.6951 33.2793 19.4879C33.2793 19.2807 33.197 19.0819 33.0505 18.9354C32.904 18.7889 32.7052 18.7066 32.498 18.7066H23.9199C23.7127 18.7066 23.514 18.7889 23.3675 18.9354C23.221 19.0819 23.1387 19.2807 23.1387 19.4879C23.1387 19.6951 23.221 19.8938 23.3675 20.0403C23.514 20.1868 23.7127 20.2691 23.9199 20.2691Z" fill="#8891B2"/>
<path d="M12.7794 44.6917H11.1834L6.38135 37.4257V44.6917H4.78535V34.9477H6.38135L11.1834 42.1997V34.9477H12.7794V44.6917ZM18.2212 44.8177C17.4932 44.8177 16.8352 44.6544 16.2472 44.3277C15.6592 43.9917 15.1972 43.5251 14.8612 42.9277C14.5252 42.3211 14.3572 41.6211 14.3572 40.8277C14.3572 40.0437 14.5299 39.3484 14.8752 38.7417C15.2205 38.1351 15.6919 37.6684 16.2892 37.3417C16.8865 37.0151 17.5539 36.8517 18.2912 36.8517C19.0285 36.8517 19.6959 37.0151 20.2932 37.3417C20.8905 37.6684 21.3619 38.1351 21.7072 38.7417C22.0525 39.3484 22.2252 40.0437 22.2252 40.8277C22.2252 41.6117 22.0479 42.3071 21.6932 42.9137C21.3385 43.5204 20.8532 43.9917 20.2372 44.3277C19.6305 44.6544 18.9585 44.8177 18.2212 44.8177ZM18.2212 43.4317C18.6319 43.4317 19.0145 43.3337 19.3692 43.1377C19.7332 42.9417 20.0272 42.6477 20.2512 42.2557C20.4752 41.8637 20.5872 41.3877 20.5872 40.8277C20.5872 40.2677 20.4799 39.7964 20.2652 39.4137C20.0505 39.0217 19.7659 38.7277 19.4112 38.5317C19.0565 38.3357 18.6739 38.2377 18.2632 38.2377C17.8525 38.2377 17.4699 38.3357 17.1152 38.5317C16.7699 38.7277 16.4945 39.0217 16.2892 39.4137C16.0839 39.7964 15.9812 40.2677 15.9812 40.8277C15.9812 41.6584 16.1912 42.3024 16.6112 42.7597C17.0405 43.2077 17.5772 43.4317 18.2212 43.4317ZM27.6949 36.8517C28.3016 36.8517 28.8429 36.9777 29.3189 37.2297C29.8043 37.4817 30.1823 37.8551 30.4529 38.3497C30.7236 38.8444 30.8589 39.4417 30.8589 40.1417V44.6917H29.2769V40.3797C29.2769 39.6891 29.1043 39.1617 28.7589 38.7977C28.4136 38.4244 27.9423 38.2377 27.3449 38.2377C26.7476 38.2377 26.2716 38.4244 25.9169 38.7977C25.5716 39.1617 25.3989 39.6891 25.3989 40.3797V44.6917H23.8029V36.9777H25.3989V37.8597C25.6603 37.5424 25.9916 37.2951 26.3929 37.1177C26.8036 36.9404 27.2376 36.8517 27.6949 36.8517ZM46.7794 34.9617V44.6917H45.1834V38.0277L42.2154 44.6917H41.1094L38.1274 38.0277V44.6917H36.5314V34.9617H38.2534L41.6694 42.5917L45.0714 34.9617H46.7794ZM52.2231 44.8177C51.4951 44.8177 50.8371 44.6544 50.2491 44.3277C49.6611 43.9917 49.1991 43.5251 48.8631 42.9277C48.5271 42.3211 48.3591 41.6211 48.3591 40.8277C48.3591 40.0437 48.5318 39.3484 48.8771 38.7417C49.2225 38.1351 49.6938 37.6684 50.2911 37.3417C50.8885 37.0151 51.5558 36.8517 52.2931 36.8517C53.0305 36.8517 53.6978 37.0151 54.2951 37.3417C54.8925 37.6684 55.3638 38.1351 55.7091 38.7417C56.0545 39.3484 56.2271 40.0437 56.2271 40.8277C56.2271 41.6117 56.0498 42.3071 55.6951 42.9137C55.3405 43.5204 54.8551 43.9917 54.2391 44.3277C53.6325 44.6544 52.9605 44.8177 52.2231 44.8177ZM52.2231 43.4317C52.6338 43.4317 53.0165 43.3337 53.3711 43.1377C53.7351 42.9417 54.0291 42.6477 54.2531 42.2557C54.4771 41.8637 54.5891 41.3877 54.5891 40.8277C54.5891 40.2677 54.4818 39.7964 54.2671 39.4137C54.0525 39.0217 53.7678 38.7277 53.4131 38.5317C53.0585 38.3357 52.6758 38.2377 52.2651 38.2377C51.8545 38.2377 51.4718 38.3357 51.1171 38.5317C50.7718 38.7277 50.4965 39.0217 50.2911 39.4137C50.0858 39.7964 49.9831 40.2677 49.9831 40.8277C49.9831 41.6584 50.1931 42.3024 50.6131 42.7597C51.0425 43.2077 51.5791 43.4317 52.2231 43.4317ZM59.6669 38.2797V42.5497C59.6669 42.8391 59.7322 43.0491 59.8629 43.1797C60.0029 43.3011 60.2362 43.3617 60.5629 43.3617H61.5429V44.6917H60.2829C59.5642 44.6917 59.0135 44.5237 58.6309 44.1877C58.2482 43.8517 58.0569 43.3057 58.0569 42.5497V38.2797H57.1469V36.9777H58.0569V35.0597H59.6669V36.9777H61.5429V38.2797H59.6669ZM66.3599 44.8177C65.6319 44.8177 64.9739 44.6544 64.3859 44.3277C63.7979 43.9917 63.3359 43.5251 62.9999 42.9277C62.6639 42.3211 62.4959 41.6211 62.4959 40.8277C62.4959 40.0437 62.6685 39.3484 63.0139 38.7417C63.3592 38.1351 63.8305 37.6684 64.4279 37.3417C65.0252 37.0151 65.6925 36.8517 66.4299 36.8517C67.1672 36.8517 67.8345 37.0151 68.4319 37.3417C69.0292 37.6684 69.5005 38.1351 69.8459 38.7417C70.1912 39.3484 70.3639 40.0437 70.3639 40.8277C70.3639 41.6117 70.1865 42.3071 69.8319 42.9137C69.4772 43.5204 68.9919 43.9917 68.3759 44.3277C67.7692 44.6544 67.0972 44.8177 66.3599 44.8177ZM66.3599 43.4317C66.7705 43.4317 67.1532 43.3337 67.5079 43.1377C67.8719 42.9417 68.1659 42.6477 68.3899 42.2557C68.6139 41.8637 68.7259 41.3877 68.7259 40.8277C68.7259 40.2677 68.6185 39.7964 68.4039 39.4137C68.1892 39.0217 67.9045 38.7277 67.5499 38.5317C67.1952 38.3357 66.8125 38.2377 66.4019 38.2377C65.9912 38.2377 65.6085 38.3357 65.2539 38.5317C64.9085 38.7277 64.6332 39.0217 64.4279 39.4137C64.2225 39.7964 64.1199 40.2677 64.1199 40.8277C64.1199 41.6584 64.3299 42.3024 64.7499 42.7597C65.1792 43.2077 65.7159 43.4317 66.3599 43.4317ZM73.5376 38.0977C73.7709 37.7057 74.0789 37.4024 74.4616 37.1877C74.8536 36.9637 75.3156 36.8517 75.8476 36.8517V38.5037H75.4416C74.8163 38.5037 74.3403 38.6624 74.0136 38.9797C73.6963 39.2971 73.5376 39.8477 73.5376 40.6317V44.6917H71.9416V36.9777H73.5376V38.0977Z" fill="#8891B2"/>
</svg>
