<svg width="52" height="52" viewBox="0 0 52 52" fill="none" xmlns="http://www.w3.org/2000/svg">
<g clip-path="url(#clip0_362_1320)">
<path d="M25.6973 25.0486C29.1384 25.0486 32.1183 23.8143 34.553 21.3791C36.9878 18.9445 38.2219 15.9655 38.2219 12.5239C38.2219 9.08341 36.9878 6.10409 34.5526 3.66852C32.1174 1.23418 29.138 0 25.6973 0C22.2557 0 19.2765 1.23418 16.8419 3.66893C14.4072 6.10368 13.1726 9.08311 13.1726 12.5239C13.1726 15.9655 14.4071 18.9449 16.8423 21.3796C19.2775 23.814 22.2569 25.0486 25.6973 25.0486ZM47.6121 39.9853C47.5418 38.9721 47.3998 37.8667 47.1907 36.6997C46.9796 35.5237 46.708 34.4121 46.3825 33.3961C46.0466 32.3459 45.5896 31.309 45.0247 30.3151C44.4382 29.2836 43.7496 28.3854 42.9767 27.6463C42.1685 26.8731 41.1791 26.2515 40.0349 25.7979C38.8948 25.347 37.6311 25.1184 36.2796 25.1184C35.7487 25.1184 35.2354 25.3362 34.2439 25.9817C33.5392 26.4406 32.8324 26.8963 32.1234 27.3487C31.4423 27.7828 30.5195 28.1895 29.3796 28.5576C28.2676 28.9175 27.1386 29.1 26.0241 29.1C24.9098 29.1 23.781 28.9175 22.6678 28.5576C21.5293 28.1898 20.6065 27.7832 19.926 27.3492C19.1369 26.8449 18.4229 26.3847 17.8036 25.9812C16.8134 25.3358 16.2996 25.1179 15.7688 25.1179C14.4167 25.1179 13.1536 25.3469 12.0137 25.7984C10.8703 26.2511 9.88052 26.8727 9.07158 27.6467C8.2992 28.3862 7.6101 29.2839 7.02449 30.3151C6.46001 31.3089 6.00298 32.3455 5.66651 33.3965C5.34151 34.4125 5.06983 35.5237 4.85878 36.6997C4.64967 37.8652 4.50768 38.9709 4.4374 39.9865C4.36749 41.0086 4.33284 42.0327 4.33351 43.0572C4.33351 45.7716 5.19638 47.969 6.89795 49.5896C8.5785 51.1889 10.8021 52.0002 13.5062 52.0002H38.5445C41.2486 52.0002 43.4714 51.1893 45.1523 49.5897C46.8543 47.9702 47.7172 45.7724 47.7172 43.0567C47.7168 42.009 47.6815 40.9755 47.6121 39.9853Z" fill="#AEB4E9"/>
</g>
<defs>
<clipPath id="clip0_362_1320">
<rect width="52" height="52" fill="white"/>
</clipPath>
</defs>
</svg>
