<svg width="80" height="46" viewBox="0 0 80 46" fill="none" xmlns="http://www.w3.org/2000/svg">
<g clip-path="url(#clip0_83_293)">
<path d="M48.9013 1.76352H31.0988C25.2546 1.76352 20.5 6.48629 20.5 12.2913V16.0923C20.5 21.8973 25.2546 26.6201 31.0988 26.6201H44.9324V25.4717L31.0988 25.4692C25.8935 25.4692 21.6587 21.2628 21.6587 16.0923V12.2913C21.6587 7.12087 25.8935 2.91442 31.0988 2.91442H48.9013C54.1066 2.91442 58.3414 7.12079 58.3414 12.2913V16.0923C58.3414 21.2628 54.1067 25.4692 48.9013 25.4692H44.8392V26.6201H48.9013C54.7454 26.6201 59.5 21.8973 59.5 16.0923V12.2913C59.5 6.48629 54.7454 1.76352 48.9013 1.76352Z" fill="#8891B2"/>
<path d="M31.0987 22.6914H49.1777V22.6845C52.7132 22.5397 55.5449 19.639 55.5449 16.0923V12.2913C55.5449 8.74451 52.7132 5.84369 49.1777 5.69902V5.69206H30.8221V5.69902C27.2867 5.84377 24.4551 8.74466 24.4551 12.2913V16.0923C24.4551 19.6389 27.2867 22.5398 30.8221 22.6845V22.6914H31.0987ZM49.1777 6.84992C52.0742 6.99346 54.3862 9.37916 54.3862 12.2913V16.0923C54.3862 19.0044 52.0742 21.39 49.1777 21.5336V6.84992ZM44.8712 6.84296H48.0191V21.5406H44.8712V6.84296ZM31.9807 6.84296H35.1287V10.8875H36.2874V6.84296H43.7126V21.5406H38.6049V10.6985H37.4463V21.5406H36.2873V10.6985H35.1287V21.5406H31.9806L31.9807 6.84296ZM30.822 21.5336C27.9255 21.39 25.6136 19.0043 25.6136 16.0923V12.2913C25.6136 9.37924 27.9255 6.99353 30.822 6.84992V21.5336Z" fill="#8891B2"/>
</g>
<path d="M35.0913 44.6917L32.8513 40.7997H31.6333V44.6917H30.0373V34.9617H33.3973C34.144 34.9617 34.774 35.0924 35.2873 35.3537C35.81 35.6151 36.1973 35.9651 36.4493 36.4037C36.7106 36.8424 36.8413 37.3324 36.8413 37.8737C36.8413 38.5084 36.6546 39.0871 36.2813 39.6097C35.9173 40.1231 35.3526 40.4731 34.5873 40.6597L36.9953 44.6917H35.0913ZM31.6333 39.5257H33.3973C33.9946 39.5257 34.4426 39.3764 34.7413 39.0777C35.0493 38.7791 35.2033 38.3777 35.2033 37.8737C35.2033 37.3697 35.054 36.9777 34.7553 36.6977C34.4566 36.4084 34.004 36.2637 33.3973 36.2637H31.6333V39.5257ZM39.695 35.9557C39.4057 35.9557 39.163 35.8577 38.967 35.6617C38.771 35.4657 38.673 35.2231 38.673 34.9337C38.673 34.6444 38.771 34.4017 38.967 34.2057C39.163 34.0097 39.4057 33.9117 39.695 33.9117C39.975 33.9117 40.213 34.0097 40.409 34.2057C40.605 34.4017 40.703 34.6444 40.703 34.9337C40.703 35.2231 40.605 35.4657 40.409 35.6617C40.213 35.8577 39.975 35.9557 39.695 35.9557ZM40.479 36.9777V44.6917H38.883V36.9777H40.479ZM44.1704 38.1257C44.4411 37.7524 44.8097 37.4491 45.2764 37.2157C45.7524 36.9731 46.2797 36.8517 46.8584 36.8517C47.5397 36.8517 48.1557 37.0151 48.7064 37.3417C49.2571 37.6684 49.6911 38.1351 50.0084 38.7417C50.3257 39.3391 50.4844 40.0251 50.4844 40.7997C50.4844 41.5744 50.3257 42.2697 50.0084 42.8857C49.6911 43.4924 49.2524 43.9684 48.6924 44.3137C48.1417 44.6497 47.5304 44.8177 46.8584 44.8177C46.2611 44.8177 45.7291 44.7011 45.2624 44.4677C44.8051 44.2344 44.4411 43.9357 44.1704 43.5717V44.6917H42.5744V34.3317H44.1704V38.1257ZM48.8604 40.7997C48.8604 40.2677 48.7484 39.8104 48.5244 39.4277C48.3097 39.0357 48.0204 38.7417 47.6564 38.5457C47.3017 38.3404 46.9191 38.2377 46.5084 38.2377C46.1071 38.2377 45.7244 38.3404 45.3604 38.5457C45.0057 38.7511 44.7164 39.0497 44.4924 39.4417C44.2777 39.8337 44.1704 40.2957 44.1704 40.8277C44.1704 41.3597 44.2777 41.8264 44.4924 42.2277C44.7164 42.6197 45.0057 42.9184 45.3604 43.1237C45.7244 43.3291 46.1071 43.4317 46.5084 43.4317C46.9191 43.4317 47.3017 43.3291 47.6564 43.1237C48.0204 42.9091 48.3097 42.6011 48.5244 42.1997C48.7484 41.7984 48.8604 41.3317 48.8604 40.7997Z" fill="#8891B2"/>
<defs>
<clipPath id="clip0_83_293">
<rect width="39" height="27" fill="white" transform="translate(20.5 0.691742)"/>
</clipPath>
</defs>
</svg>
