<svg width="80" height="46" viewBox="0 0 80 46" fill="none" xmlns="http://www.w3.org/2000/svg">
<g clip-path="url(#clip0_83_275)">
<path d="M52.522 21.7805H52.5222C52.9276 21.7809 53.3161 21.9428 53.6027 22.2306C53.8892 22.5184 54.0503 22.9084 54.0507 23.3152V23.3153V23.3694V23.3695C54.0503 23.7764 53.8892 24.1666 53.6025 24.4544C53.3158 24.7423 52.927 24.9042 52.5215 24.9044H52.5214H52.4877C52.368 26.2216 51.7687 27.4495 50.8028 28.3519C49.8141 29.2755 48.5145 29.7898 47.1642 29.7917H47.164H26.4305H26.4304V29.6917C26.3664 29.6918 26.3035 29.6757 26.2473 29.6449C26.1911 29.6141 26.1436 29.5695 26.1091 29.5154L52.522 21.7805ZM52.522 21.7805H41.7251M52.522 21.7805H41.7251M41.7251 21.7805V19.9342H50.8582H50.8582C50.986 19.9341 51.1085 19.8831 51.1987 19.7924C51.2889 19.7018 51.3396 19.579 51.3397 19.4511V19.4508C51.3326 16.2754 50.4263 13.1676 48.7266 10.49C47.0269 7.8124 44.6038 5.6756 41.7402 4.32907L41.74 4.32897L41.7251 4.32199V2.95057V2.95045C41.7247 2.59037 41.5821 2.24508 41.3284 1.99033C41.0747 1.73557 40.7307 1.59218 40.3718 1.59174H40.3717L40.3268 1.59174L40.3267 1.59174C39.9678 1.59218 39.6238 1.73557 39.3701 1.99033L39.441 2.06089L39.3701 1.99033C39.1164 2.24508 38.9738 2.59037 38.9734 2.95045V2.95057V4.52752L38.2498 6.15665L38.2498 6.15671C36.1188 10.9624 33.1546 15.3496 29.4955 19.1138L29.4955 19.1138C29.4293 19.1819 29.3847 19.268 29.3672 19.3613C29.3496 19.4546 29.3598 19.551 29.3965 19.6386L29.4887 19.5999L29.3965 19.6386C29.4333 19.7261 29.495 19.8009 29.5739 19.8535C29.6528 19.9061 29.7455 19.9342 29.8403 19.9342H38.9732V21.7805H28.1765H28.1763C27.7709 21.7809 27.3824 21.9428 27.0958 22.2306C26.8093 22.5184 26.6482 22.9084 26.6478 23.3152V23.3153L26.6478 23.3694L26.6478 23.3695C26.6484 23.7575 26.7952 24.1309 27.0589 24.4147L41.7251 21.7805ZM27.7059 23.842L27.7768 23.7715C27.8829 23.8781 28.0267 23.938 28.1766 23.9382H52.5219C52.6718 23.938 52.8156 23.8781 52.9217 23.7715C53.0279 23.6649 53.0876 23.5202 53.0878 23.3693V23.3154C53.0876 23.1645 53.0279 23.0199 52.9217 22.9133C52.8156 22.8067 52.6718 22.7468 52.5219 22.7467H28.1766C28.0267 22.7468 27.8829 22.8067 27.7768 22.9133C27.6707 23.0198 27.6109 23.1644 27.6107 23.3153C27.6107 23.3153 27.6107 23.3154 27.6107 23.3154M27.7059 23.842L27.5107 23.3153L27.6107 23.3154M27.7059 23.842L27.7768 23.7715C27.6707 23.6649 27.6109 23.5203 27.6107 23.3694M27.7059 23.842L27.6107 23.3694M27.6107 23.3154V23.3693M27.6107 23.3154V23.3693M27.6107 23.3693L27.6107 23.3694M27.6107 23.3693L27.6107 23.3694M30.9622 18.9679C34.2602 15.4021 36.965 11.3266 38.9732 6.89809V18.9679H30.9622ZM50.3689 18.9679H41.7251V5.39488C44.2376 6.66321 46.366 8.58637 47.8867 10.9645C49.418 13.3591 50.2754 16.1247 50.3689 18.9679ZM39.9361 19.451V2.9507C39.9363 2.84645 39.9776 2.74659 40.0508 2.67301L39.98 2.60245L40.0508 2.67301C40.1241 2.59946 40.2233 2.55814 40.3266 2.55798H40.3717C40.475 2.55814 40.5742 2.59946 40.6475 2.67301C40.7207 2.74659 40.762 2.84645 40.7622 2.9507V21.7805H39.9361V19.451ZM47.1639 28.8255H27.1815L28.9768 24.9044H51.5223C51.4049 25.962 50.9104 26.9427 50.1283 27.664C49.3195 28.4099 48.2618 28.8242 47.1639 28.8255Z" fill="#8891B2" stroke="#8891B2" stroke-width="0.2"/>
</g>
<path d="M13.5558 44.7897C12.9025 44.7897 12.3145 44.6777 11.7918 44.4537C11.2691 44.2204 10.8585 43.8937 10.5598 43.4737C10.2611 43.0537 10.1118 42.5637 10.1118 42.0037H11.8198C11.8571 42.4237 12.0205 42.7691 12.3098 43.0397C12.6085 43.3104 13.0238 43.4457 13.5558 43.4457C14.1065 43.4457 14.5358 43.3151 14.8438 43.0537C15.1518 42.7831 15.3058 42.4377 15.3058 42.0177C15.3058 41.6911 15.2078 41.4251 15.0118 41.2197C14.8251 41.0144 14.5871 40.8557 14.2978 40.7437C14.0178 40.6317 13.6258 40.5104 13.1218 40.3797C12.4871 40.2117 11.9691 40.0437 11.5678 39.8757C11.1758 39.6984 10.8398 39.4277 10.5598 39.0637C10.2798 38.6997 10.1398 38.2144 10.1398 37.6077C10.1398 37.0477 10.2798 36.5577 10.5598 36.1377C10.8398 35.7177 11.2318 35.3957 11.7358 35.1717C12.2398 34.9477 12.8231 34.8357 13.4858 34.8357C14.4285 34.8357 15.1985 35.0737 15.7958 35.5497C16.4025 36.0164 16.7385 36.6604 16.8038 37.4817H15.0398C15.0118 37.1271 14.8438 36.8237 14.5358 36.5717C14.2278 36.3197 13.8218 36.1937 13.3178 36.1937C12.8605 36.1937 12.4871 36.3104 12.1978 36.5437C11.9085 36.7771 11.7638 37.1131 11.7638 37.5517C11.7638 37.8504 11.8525 38.0977 12.0298 38.2937C12.2165 38.4804 12.4498 38.6297 12.7298 38.7417C13.0098 38.8537 13.3925 38.9751 13.8778 39.1057C14.5218 39.2831 15.0445 39.4604 15.4458 39.6377C15.8565 39.8151 16.2018 40.0904 16.4818 40.4637C16.7711 40.8277 16.9158 41.3177 16.9158 41.9337C16.9158 42.4284 16.7805 42.8951 16.5098 43.3337C16.2485 43.7724 15.8611 44.1271 15.3478 44.3977C14.8438 44.6591 14.2465 44.7897 13.5558 44.7897ZM18.267 40.7997C18.267 40.0251 18.4257 39.3391 18.743 38.7417C19.0697 38.1444 19.5084 37.6824 20.059 37.3557C20.619 37.0197 21.235 36.8517 21.907 36.8517C22.5137 36.8517 23.041 36.9731 23.489 37.2157C23.9464 37.4491 24.3104 37.7431 24.581 38.0977V36.9777H26.191V44.6917H24.581V43.5437C24.3104 43.9077 23.9417 44.2111 23.475 44.4537C23.0084 44.6964 22.4764 44.8177 21.879 44.8177C21.2164 44.8177 20.6097 44.6497 20.059 44.3137C19.5084 43.9684 19.0697 43.4924 18.743 42.8857C18.4257 42.2697 18.267 41.5744 18.267 40.7997ZM24.581 40.8277C24.581 40.2957 24.469 39.8337 24.245 39.4417C24.0304 39.0497 23.7457 38.7511 23.391 38.5457C23.0364 38.3404 22.6537 38.2377 22.243 38.2377C21.8324 38.2377 21.4497 38.3404 21.095 38.5457C20.7404 38.7417 20.451 39.0357 20.227 39.4277C20.0124 39.8104 19.905 40.2677 19.905 40.7997C19.905 41.3317 20.0124 41.7984 20.227 42.1997C20.451 42.6011 20.7404 42.9091 21.095 43.1237C21.459 43.3291 21.8417 43.4317 22.243 43.4317C22.6537 43.4317 23.0364 43.3291 23.391 43.1237C23.7457 42.9184 24.0304 42.6197 24.245 42.2277C24.469 41.8264 24.581 41.3597 24.581 40.8277ZM29.0993 35.9557C28.81 35.9557 28.5673 35.8577 28.3713 35.6617C28.1753 35.4657 28.0773 35.2231 28.0773 34.9337C28.0773 34.6444 28.1753 34.4017 28.3713 34.2057C28.5673 34.0097 28.81 33.9117 29.0993 33.9117C29.3793 33.9117 29.6173 34.0097 29.8133 34.2057C30.0093 34.4017 30.1073 34.6444 30.1073 34.9337C30.1073 35.2231 30.0093 35.4657 29.8133 35.6617C29.6173 35.8577 29.3793 35.9557 29.0993 35.9557ZM29.8833 36.9777V44.6917H28.2873V36.9777H29.8833ZM33.5747 34.3317V44.6917H31.9787V34.3317H33.5747ZM44.5148 39.6937C45.0375 39.7871 45.4808 40.0624 45.8448 40.5197C46.2088 40.9771 46.3908 41.4951 46.3908 42.0737C46.3908 42.5684 46.2602 43.0164 45.9988 43.4177C45.7468 43.8097 45.3782 44.1224 44.8928 44.3557C44.4075 44.5797 43.8428 44.6917 43.1988 44.6917H39.3068V34.9617H43.0168C43.6795 34.9617 44.2488 35.0737 44.7248 35.2977C45.2008 35.5217 45.5602 35.8251 45.8028 36.2077C46.0455 36.5811 46.1668 37.0011 46.1668 37.4677C46.1668 38.0277 46.0175 38.4944 45.7188 38.8677C45.4202 39.2411 45.0188 39.5164 44.5148 39.6937ZM40.9028 39.0497H42.8768C43.3995 39.0497 43.8055 38.9331 44.0948 38.6997C44.3935 38.4571 44.5428 38.1117 44.5428 37.6637C44.5428 37.2251 44.3935 36.8844 44.0948 36.6417C43.8055 36.3897 43.3995 36.2637 42.8768 36.2637H40.9028V39.0497ZM43.0588 43.3897C43.6002 43.3897 44.0248 43.2591 44.3328 42.9977C44.6408 42.7364 44.7948 42.3724 44.7948 41.9057C44.7948 41.4297 44.6315 41.0517 44.3048 40.7717C43.9782 40.4917 43.5442 40.3517 43.0028 40.3517H40.9028V43.3897H43.0588ZM51.4712 44.8177C50.7432 44.8177 50.0852 44.6544 49.4972 44.3277C48.9092 43.9917 48.4472 43.5251 48.1112 42.9277C47.7752 42.3211 47.6072 41.6211 47.6072 40.8277C47.6072 40.0437 47.7799 39.3484 48.1252 38.7417C48.4705 38.1351 48.9419 37.6684 49.5392 37.3417C50.1365 37.0151 50.8039 36.8517 51.5412 36.8517C52.2785 36.8517 52.9459 37.0151 53.5432 37.3417C54.1405 37.6684 54.6119 38.1351 54.9572 38.7417C55.3025 39.3484 55.4752 40.0437 55.4752 40.8277C55.4752 41.6117 55.2979 42.3071 54.9432 42.9137C54.5885 43.5204 54.1032 43.9917 53.4872 44.3277C52.8805 44.6544 52.2085 44.8177 51.4712 44.8177ZM51.4712 43.4317C51.8819 43.4317 52.2645 43.3337 52.6192 43.1377C52.9832 42.9417 53.2772 42.6477 53.5012 42.2557C53.7252 41.8637 53.8372 41.3877 53.8372 40.8277C53.8372 40.2677 53.7299 39.7964 53.5152 39.4137C53.3005 39.0217 53.0159 38.7277 52.6612 38.5317C52.3065 38.3357 51.9239 38.2377 51.5132 38.2377C51.1025 38.2377 50.7199 38.3357 50.3652 38.5317C50.0199 38.7277 49.7445 39.0217 49.5392 39.4137C49.3339 39.7964 49.2312 40.2677 49.2312 40.8277C49.2312 41.6584 49.4412 42.3024 49.8612 42.7597C50.2905 43.2077 50.8272 43.4317 51.4712 43.4317ZM56.5209 40.7997C56.5209 40.0251 56.6796 39.3391 56.9969 38.7417C57.3236 38.1444 57.7623 37.6824 58.3129 37.3557C58.8729 37.0197 59.4889 36.8517 60.1609 36.8517C60.7676 36.8517 61.2949 36.9731 61.7429 37.2157C62.2003 37.4491 62.5643 37.7431 62.8349 38.0977V36.9777H64.4449V44.6917H62.8349V43.5437C62.5643 43.9077 62.1956 44.2111 61.7289 44.4537C61.2623 44.6964 60.7303 44.8177 60.1329 44.8177C59.4703 44.8177 58.8636 44.6497 58.3129 44.3137C57.7623 43.9684 57.3236 43.4924 56.9969 42.8857C56.6796 42.2697 56.5209 41.5744 56.5209 40.7997ZM62.8349 40.8277C62.8349 40.2957 62.7229 39.8337 62.4989 39.4417C62.2843 39.0497 61.9996 38.7511 61.6449 38.5457C61.2903 38.3404 60.9076 38.2377 60.4969 38.2377C60.0863 38.2377 59.7036 38.3404 59.3489 38.5457C58.9943 38.7417 58.7049 39.0357 58.4809 39.4277C58.2663 39.8104 58.1589 40.2677 58.1589 40.7997C58.1589 41.3317 58.2663 41.7984 58.4809 42.1997C58.7049 42.6011 58.9943 42.9091 59.3489 43.1237C59.7129 43.3291 60.0956 43.4317 60.4969 43.4317C60.9076 43.4317 61.2903 43.3291 61.6449 43.1237C61.9996 42.9184 62.2843 42.6197 62.4989 42.2277C62.7229 41.8264 62.8349 41.3597 62.8349 40.8277ZM68.4032 38.2797V42.5497C68.4032 42.8391 68.4685 43.0491 68.5992 43.1797C68.7392 43.3011 68.9725 43.3617 69.2992 43.3617H70.2792V44.6917H69.0192C68.3005 44.6917 67.7499 44.5237 67.3672 44.1877C66.9845 43.8517 66.7932 43.3057 66.7932 42.5497V38.2797H65.8832V36.9777H66.7932V35.0597H68.4032V36.9777H70.2792V38.2797H68.4032Z" fill="#8891B2"/>
<defs>
<clipPath id="clip0_83_275">
<rect width="42" height="29" fill="white" transform="translate(19 0.691742)"/>
</clipPath>
</defs>
</svg>
