<svg width="80" height="46" viewBox="0 0 80 46" fill="none" xmlns="http://www.w3.org/2000/svg">
<g clip-path="url(#clip0_83_280)">
<path d="M66.392 18.0902L63.9076 13.7508C63.5864 13.1872 63.1373 12.707 62.5964 12.3488C62.0556 11.9906 61.4381 11.7645 60.7939 11.6888L48.6618 10.2644C43.5109 5.31221 36.1737 5.25424 35.859 5.25424C35.6616 5.25423 35.4707 5.32471 35.3207 5.45299L29.6978 10.2727L16.5389 12.5997C16.2045 12.6554 15.8851 12.7789 15.6003 12.9626C15.3154 13.1463 15.0712 13.3864 14.8826 13.668L13.6404 15.5644C13.5393 15.7173 13.4917 15.8994 13.5052 16.0823C13.5187 16.2651 13.5924 16.4383 13.7149 16.5747C14.0296 16.9225 21.4828 25.1292 27.5778 25.1292C33.3746 25.1292 62.036 22.7442 63.2534 22.6449C63.3706 22.6352 63.4844 22.6006 63.5872 22.5435C63.69 22.4864 63.7795 22.408 63.8496 22.3136L66.334 19.0011C66.4319 18.8717 66.4895 18.7163 66.4998 18.5544C66.5101 18.3924 66.4726 18.231 66.392 18.0902ZM41.6062 7.98705C43.1831 8.50858 44.6736 9.26217 46.0284 10.223H39.511C39.511 10.223 41.5648 8.11127 41.6062 7.98705ZM36.1571 6.91049C37.4193 6.99007 38.6719 7.18128 39.9003 7.4819L37.1757 10.223H32.2981L36.1571 6.91049ZM16.8121 14.2311L30.1367 11.8792H48.2312L60.6034 13.3367C60.9888 13.3826 61.358 13.5181 61.6816 13.7324C62.0052 13.9466 62.274 14.2337 62.4667 14.5706L63.6095 16.5664C55.9328 14.9681 47.2209 13.5355 39.0059 15.1917C31.3502 16.6669 23.4865 16.7006 15.8184 15.2911L16.307 14.5706C16.4262 14.3975 16.6068 14.2761 16.8121 14.2311ZM62.7482 20.9886C59.2949 21.2702 32.9357 23.473 27.5778 23.473C23.7849 23.473 19.0646 19.498 16.6051 17.1544C24.1401 18.409 31.8387 18.3052 39.3371 16.848C47.7343 15.1917 56.8106 16.848 64.6529 18.5042L62.7482 20.9886Z" fill="#8891B2"/>
<path d="M30.0625 12.7074H31.7188V14.3636H30.0625V12.7074ZM51.5938 18.5042H53.25V20.1605H51.5938V18.5042ZM54.9062 18.5042H56.5625V20.1605H54.9062V18.5042ZM58.2188 18.5042H59.875V20.1605H58.2188V18.5042Z" fill="#8891B2"/>
</g>
<path d="M4.73061 44.7897C4.07728 44.7897 3.48928 44.6777 2.96661 44.4537C2.44394 44.2204 2.03328 43.8937 1.73461 43.4737C1.43594 43.0537 1.28661 42.5637 1.28661 42.0037H2.99461C3.03194 42.4237 3.19528 42.7691 3.48461 43.0397C3.78328 43.3104 4.19861 43.4457 4.73061 43.4457C5.28128 43.4457 5.71061 43.3151 6.01861 43.0537C6.32661 42.7831 6.48061 42.4377 6.48061 42.0177C6.48061 41.6911 6.38261 41.4251 6.18661 41.2197C5.99994 41.0144 5.76194 40.8557 5.47261 40.7437C5.19261 40.6317 4.80061 40.5104 4.29661 40.3797C3.66194 40.2117 3.14394 40.0437 2.74261 39.8757C2.35061 39.6984 2.01461 39.4277 1.73461 39.0637C1.45461 38.6997 1.31461 38.2144 1.31461 37.6077C1.31461 37.0477 1.45461 36.5577 1.73461 36.1377C2.01461 35.7177 2.40661 35.3957 2.91061 35.1717C3.41461 34.9477 3.99794 34.8357 4.66061 34.8357C5.60328 34.8357 6.37328 35.0737 6.97061 35.5497C7.57728 36.0164 7.91328 36.6604 7.97861 37.4817H6.21461C6.18661 37.1271 6.01861 36.8237 5.71061 36.5717C5.40261 36.3197 4.99661 36.1937 4.49261 36.1937C4.03528 36.1937 3.66194 36.3104 3.37261 36.5437C3.08328 36.7771 2.93861 37.1131 2.93861 37.5517C2.93861 37.8504 3.02728 38.0977 3.20461 38.2937C3.39128 38.4804 3.62461 38.6297 3.90461 38.7417C4.18461 38.8537 4.56728 38.9751 5.05261 39.1057C5.69661 39.2831 6.21928 39.4604 6.62061 39.6377C7.03128 39.8151 7.37661 40.0904 7.65661 40.4637C7.94594 40.8277 8.09061 41.3177 8.09061 41.9337C8.09061 42.4284 7.95528 42.8951 7.68461 43.3337C7.42328 43.7724 7.03594 44.1271 6.52261 44.3977C6.01861 44.6591 5.42128 44.7897 4.73061 44.7897ZM19.3118 36.8517C19.9185 36.8517 20.4598 36.9777 20.9358 37.2297C21.4212 37.4817 21.7992 37.8551 22.0698 38.3497C22.3498 38.8444 22.4898 39.4417 22.4898 40.1417V44.6917H20.9078V40.3797C20.9078 39.6891 20.7352 39.1617 20.3898 38.7977C20.0445 38.4244 19.5732 38.2377 18.9758 38.2377C18.3785 38.2377 17.9025 38.4244 17.5478 38.7977C17.2025 39.1617 17.0298 39.6891 17.0298 40.3797V44.6917H15.4478V40.3797C15.4478 39.6891 15.2752 39.1617 14.9298 38.7977C14.5845 38.4244 14.1132 38.2377 13.5158 38.2377C12.9185 38.2377 12.4425 38.4244 12.0878 38.7977C11.7425 39.1617 11.5698 39.6891 11.5698 40.3797V44.6917H9.97383V36.9777H11.5698V37.8597C11.8312 37.5424 12.1625 37.2951 12.5638 37.1177C12.9652 36.9404 13.3945 36.8517 13.8518 36.8517C14.4678 36.8517 15.0185 36.9824 15.5038 37.2437C15.9892 37.5051 16.3625 37.8831 16.6238 38.3777C16.8572 37.9111 17.2212 37.5424 17.7158 37.2717C18.2105 36.9917 18.7425 36.8517 19.3118 36.8517ZM23.9887 40.7997C23.9887 40.0251 24.1474 39.3391 24.4647 38.7417C24.7914 38.1444 25.23 37.6824 25.7807 37.3557C26.3407 37.0197 26.9567 36.8517 27.6287 36.8517C28.2354 36.8517 28.7627 36.9731 29.2107 37.2157C29.668 37.4491 30.032 37.7431 30.3027 38.0977V36.9777H31.9127V44.6917H30.3027V43.5437C30.032 43.9077 29.6634 44.2111 29.1967 44.4537C28.73 44.6964 28.198 44.8177 27.6007 44.8177C26.938 44.8177 26.3314 44.6497 25.7807 44.3137C25.23 43.9684 24.7914 43.4924 24.4647 42.8857C24.1474 42.2697 23.9887 41.5744 23.9887 40.7997ZM30.3027 40.8277C30.3027 40.2957 30.1907 39.8337 29.9667 39.4417C29.752 39.0497 29.4674 38.7511 29.1127 38.5457C28.758 38.3404 28.3754 38.2377 27.9647 38.2377C27.554 38.2377 27.1714 38.3404 26.8167 38.5457C26.462 38.7417 26.1727 39.0357 25.9487 39.4277C25.734 39.8104 25.6267 40.2677 25.6267 40.7997C25.6267 41.3317 25.734 41.7984 25.9487 42.1997C26.1727 42.6011 26.462 42.9091 26.8167 43.1237C27.1807 43.3291 27.5634 43.4317 27.9647 43.4317C28.3754 43.4317 28.758 43.3291 29.1127 43.1237C29.4674 42.9184 29.752 42.6197 29.9667 42.2277C30.1907 41.8264 30.3027 41.3597 30.3027 40.8277ZM35.605 34.3317V44.6917H34.009V34.3317H35.605ZM39.2964 34.3317V44.6917H37.7004V34.3317H39.2964ZM44.4965 39.8057C44.4965 38.8537 44.7158 37.9997 45.1545 37.2437C45.6025 36.4877 46.2045 35.8997 46.9605 35.4797C47.7258 35.0504 48.5612 34.8357 49.4665 34.8357C50.5025 34.8357 51.4218 35.0924 52.2245 35.6057C53.0365 36.1097 53.6245 36.8284 53.9885 37.7617H52.0705C51.8185 37.2484 51.4685 36.8657 51.0205 36.6137C50.5725 36.3617 50.0545 36.2357 49.4665 36.2357C48.8225 36.2357 48.2485 36.3804 47.7445 36.6697C47.2405 36.9591 46.8438 37.3744 46.5545 37.9157C46.2745 38.4571 46.1345 39.0871 46.1345 39.8057C46.1345 40.5244 46.2745 41.1544 46.5545 41.6957C46.8438 42.2371 47.2405 42.6571 47.7445 42.9557C48.2485 43.2451 48.8225 43.3897 49.4665 43.3897C50.0545 43.3897 50.5725 43.2637 51.0205 43.0117C51.4685 42.7597 51.8185 42.3771 52.0705 41.8637H53.9885C53.6245 42.7971 53.0365 43.5157 52.2245 44.0197C51.4218 44.5237 50.5025 44.7757 49.4665 44.7757C48.5518 44.7757 47.7165 44.5657 46.9605 44.1457C46.2045 43.7164 45.6025 43.1237 45.1545 42.3677C44.7158 41.6117 44.4965 40.7577 44.4965 39.8057ZM57.4526 38.0977C57.686 37.7057 57.994 37.4024 58.3766 37.1877C58.7686 36.9637 59.2306 36.8517 59.7626 36.8517V38.5037H59.3566C58.7313 38.5037 58.2553 38.6624 57.9286 38.9797C57.6113 39.2971 57.4526 39.8477 57.4526 40.6317V44.6917H55.8566V36.9777H57.4526V38.0977ZM60.6977 40.7997C60.6977 40.0251 60.8564 39.3391 61.1737 38.7417C61.5004 38.1444 61.939 37.6824 62.4897 37.3557C63.0497 37.0197 63.6657 36.8517 64.3377 36.8517C64.9444 36.8517 65.4717 36.9731 65.9197 37.2157C66.377 37.4491 66.741 37.7431 67.0117 38.0977V36.9777H68.6217V44.6917H67.0117V43.5437C66.741 43.9077 66.3724 44.2111 65.9057 44.4537C65.439 44.6964 64.907 44.8177 64.3097 44.8177C63.647 44.8177 63.0404 44.6497 62.4897 44.3137C61.939 43.9684 61.5004 43.4924 61.1737 42.8857C60.8564 42.2697 60.6977 41.5744 60.6977 40.7997ZM67.0117 40.8277C67.0117 40.2957 66.8997 39.8337 66.6757 39.4417C66.461 39.0497 66.1764 38.7511 65.8217 38.5457C65.467 38.3404 65.0844 38.2377 64.6737 38.2377C64.263 38.2377 63.8804 38.3404 63.5257 38.5457C63.171 38.7417 62.8817 39.0357 62.6577 39.4277C62.443 39.8104 62.3357 40.2677 62.3357 40.7997C62.3357 41.3317 62.443 41.7984 62.6577 42.1997C62.8817 42.6011 63.171 42.9091 63.5257 43.1237C63.8897 43.3291 64.2724 43.4317 64.6737 43.4317C65.0844 43.4317 65.467 43.3291 65.8217 43.1237C66.1764 42.9184 66.461 42.6197 66.6757 42.2277C66.8997 41.8264 67.0117 41.3597 67.0117 40.8277ZM73.952 38.2797H72.524V44.6917H70.914V38.2797H70.004V36.9777H70.914V36.4317C70.914 35.5451 71.1473 34.9011 71.614 34.4997C72.09 34.0891 72.832 33.8837 73.84 33.8837V35.2137C73.3546 35.2137 73.014 35.3071 72.818 35.4937C72.622 35.6711 72.524 35.9837 72.524 36.4317V36.9777H73.952V38.2797ZM77.2284 38.2797V42.5497C77.2284 42.8391 77.2937 43.0491 77.4244 43.1797C77.5644 43.3011 77.7977 43.3617 78.1244 43.3617H79.1044V44.6917H77.8444C77.1257 44.6917 76.5751 44.5237 76.1924 44.1877C75.8097 43.8517 75.6184 43.3057 75.6184 42.5497V38.2797H74.7084V36.9777H75.6184V35.0597H77.2284V36.9777H79.1044V38.2797H77.2284Z" fill="#8891B2"/>
<defs>
<clipPath id="clip0_83_280">
<rect width="53" height="29" fill="white" transform="translate(13.5 0.691742)"/>
</clipPath>
</defs>
</svg>
