<svg width="66" height="66" viewBox="0 0 66 66" fill="none" xmlns="http://www.w3.org/2000/svg">
<g clip-path="url(#clip0_362_1323)">
<path d="M-1.00049 66H66.9887V60.3441H-1.00049V66ZM24.4732 7.25911C23.9833 7.25911 23.5825 6.8583 23.5825 6.36842C23.5825 5.87854 23.9833 5.47773 24.4732 5.47773H26.8335C27.3234 5.47773 27.7242 5.87854 27.7242 6.36842C27.7242 6.8583 27.3234 7.25911 26.8335 7.25911H24.4732ZM31.1237 7.25911C30.6338 7.25911 30.233 6.8583 30.233 6.36842C30.233 5.87854 30.6338 5.47773 31.1237 5.47773H33.484C33.9739 5.47773 34.3747 5.87854 34.3747 6.36842C34.3747 6.8583 33.9739 7.25911 33.484 7.25911H31.1237ZM24.4732 13.5088C23.9833 13.5088 23.5825 13.108 23.5825 12.6181C23.5825 12.1282 23.9833 11.7274 24.4732 11.7274H26.8335C27.3234 11.7274 27.7242 12.1282 27.7242 12.6181C27.7242 13.108 27.3234 13.5088 26.8335 13.5088H24.4732ZM31.1237 13.5088C30.6338 13.5088 30.233 13.108 30.233 12.6181C30.233 12.1282 30.6338 11.7274 31.1237 11.7274H33.484C33.9739 11.7274 34.3747 12.1282 34.3747 12.6181C34.3747 13.108 33.9739 13.5088 33.484 13.5088H31.1237ZM17.8376 13.5088C17.3477 13.5088 16.9469 13.108 16.9469 12.6181C16.9469 12.1282 17.3477 11.7274 17.8376 11.7274H20.1979C20.6878 11.7274 21.0886 12.1282 21.0886 12.6181C21.0886 13.108 20.6878 13.5088 20.1979 13.5088H17.8376ZM24.4732 19.7584C23.9833 19.7584 23.5825 19.3576 23.5825 18.8678C23.5825 18.3779 23.9833 17.9771 24.4732 17.9771H26.8335C27.3234 17.9771 27.7242 18.3779 27.7242 18.8678C27.7242 19.3576 27.3234 19.7584 26.8335 19.7584H24.4732ZM31.1237 19.7584C30.6338 19.7584 30.233 19.3576 30.233 18.8678C30.233 18.3779 30.6338 17.9771 31.1237 17.9771H33.484C33.9739 17.9771 34.3747 18.3779 34.3747 18.8678C34.3747 19.3576 33.9739 19.7584 33.484 19.7584H31.1237ZM17.8376 19.7584C17.3477 19.7584 16.9469 19.3576 16.9469 18.8678C16.9469 18.3779 17.3477 17.9771 17.8376 17.9771H20.1979C20.6878 17.9771 21.0886 18.3779 21.0886 18.8678C21.0886 19.3576 20.6878 19.7584 20.1979 19.7584H17.8376ZM24.4732 26.0081C23.9833 26.0081 23.5825 25.6073 23.5825 25.1174C23.5825 24.6275 23.9833 24.2267 24.4732 24.2267H26.8335C27.3234 24.2267 27.7242 24.6275 27.7242 25.1174C27.7242 25.6073 27.3234 26.0081 26.8335 26.0081H24.4732ZM31.1237 26.0081C30.6338 26.0081 30.233 25.6073 30.233 25.1174C30.233 24.6275 30.6338 24.2267 31.1237 24.2267H33.484C33.9739 24.2267 34.3747 24.6275 34.3747 25.1174C34.3747 25.6073 33.9739 26.0081 33.484 26.0081H31.1237ZM17.8376 26.0081C17.3477 26.0081 16.9469 25.6073 16.9469 25.1174C16.9469 24.6275 17.3477 24.2267 17.8376 24.2267H20.1979C20.6878 24.2267 21.0886 24.6275 21.0886 25.1174C21.0886 25.6073 20.6878 26.0081 20.1979 26.0081H17.8376ZM17.8376 32.2578C17.3477 32.2578 16.9469 31.857 16.9469 31.3671C16.9469 30.8772 17.3477 30.4764 17.8376 30.4764H20.1979C20.6878 30.4764 21.0886 30.8772 21.0886 31.3671C21.0886 31.857 20.6878 32.2578 20.1979 32.2578H17.8376ZM17.8376 38.5074C17.3477 38.5074 16.9469 38.1066 16.9469 37.6167C16.9469 37.1269 17.3477 36.7261 17.8376 36.7261H20.1979C20.6878 36.7261 21.0886 37.1269 21.0886 37.6167C21.0886 38.1066 20.6878 38.5074 20.1979 38.5074H17.8376ZM44.8254 25.9487C44.3356 25.9487 43.9347 25.5479 43.9347 25.058C43.9347 24.5682 44.3356 24.1673 44.8254 24.1673H48.21C48.6999 24.1673 49.1007 24.5682 49.1007 25.058C49.1007 25.5479 48.6999 25.9487 48.21 25.9487H44.8254ZM46.1466 32.2281C45.6567 32.2281 45.2559 31.8273 45.2559 31.3374C45.2559 30.8475 45.6567 30.4467 46.1466 30.4467H48.21C48.6999 30.4467 49.1007 30.8475 49.1007 31.3374C49.1007 31.8273 48.6999 32.2281 48.21 32.2281H46.1466ZM44.8254 19.6842C44.3356 19.6842 43.9347 19.2834 43.9347 18.7935C43.9347 18.3036 44.3356 17.9028 44.8254 17.9028H48.21C48.6999 17.9028 49.1007 18.3036 49.1007 18.7935C49.1007 19.2834 48.6999 19.6842 48.21 19.6842H44.8254ZM55.6621 39.2794C53.2128 39.2794 51.2384 41.2686 51.2384 43.7031C51.2384 46.1525 53.2276 48.1269 55.6621 48.1269C58.0967 48.1269 60.0859 46.1377 60.0859 43.7031C60.0859 41.2686 58.0967 39.2794 55.6621 39.2794ZM36.3342 47.9042H29.6392C25.4084 47.9042 21.9199 51.3779 21.9199 55.6235V58.5628H44.0387V55.6235C44.0535 51.3779 40.5798 47.9042 36.3342 47.9042ZM32.9941 34.3509C29.8619 34.3509 27.3234 36.8893 27.3234 40.0216C27.3234 43.1539 29.8619 45.6923 32.9941 45.6923C36.1264 45.6923 38.6648 43.1539 38.6648 40.0216C38.6648 36.8893 36.1264 34.3509 32.9941 34.3509ZM10.3261 39.2794C7.87671 39.2794 5.90235 41.2686 5.90235 43.7031C5.90235 46.1525 7.89155 48.1269 10.3261 48.1269C12.7606 48.1269 14.7499 46.1377 14.7499 43.7031C14.7647 41.2686 12.7755 39.2794 10.3261 39.2794ZM14.2006 48.5722C17.0211 48.9879 19.3814 50.9177 20.3909 53.5304C21.2816 49.552 24.681 46.5385 28.7782 46.1674C24.9482 43.525 24.4287 38.0472 27.7391 34.7517C30.6635 31.8273 35.399 31.8421 38.3086 34.7814V0H25.6756C18.7283 0 13.0427 5.68556 13.0427 12.6329V38.1066C17.125 40.0958 17.793 45.7072 14.2006 48.5722ZM13.0427 50.2645H7.62434C4.28426 50.2645 1.53797 53.0108 1.53797 56.3509V58.5628H19.1291V56.3509C19.1291 53.0108 16.3828 50.2645 13.0427 50.2645ZM45.5974 53.5304C46.6068 50.9177 48.9671 48.9879 51.7877 48.5722C48.1952 45.7072 48.8484 40.0958 52.9604 38.1215V13.969H40.0751V36.4588C40.0751 36.6964 39.986 36.9042 39.8376 37.0675C41.2627 40.3482 40.1345 44.1633 37.21 46.1674C41.3221 46.5533 44.7067 49.5668 45.5974 53.5304ZM58.3639 50.2645H52.9307C49.5906 50.2645 46.8443 53.0108 46.8443 56.3509V58.5628H64.4354V56.3509C64.4503 53.0108 61.7188 50.2645 58.3639 50.2645Z" fill="#AEB4E9"/>
</g>
<defs>
<clipPath id="clip0_362_1323">
<rect width="66" height="66" fill="white"/>
</clipPath>
</defs>
</svg>
